<?xml version="1.0" encoding="UTF-8"?>
<svg version="1.1" xmlns="http://www.w3.org/2000/svg" width="225" height="225">
<path d="M0 0 C74.25 0 148.5 0 225 0 C225 74.25 225 148.5 225 225 C150.75 225 76.5 225 0 225 C0 150.75 0 76.5 0 0 Z " fill="#FDFDFC" transform="translate(0,0)"/>
<path d="M0 0 C74.25 0 148.5 0 225 0 C225 74.25 225 148.5 225 225 C150.75 225 76.5 225 0 225 C0 150.75 0 76.5 0 0 Z M35.55859375 43.1015625 C18.00793635 62.98337592 9.82773594 86.5609815 9.8125 112.8125 C9.80025391 113.91142578 9.78800781 115.01035156 9.77539062 116.14257812 C9.75607354 127.06960818 11.22653643 137.15167966 15.125 147.375 C15.43066895 148.18517578 15.73633789 148.99535156 16.05126953 149.83007812 C20.76739405 161.93201183 27.26771513 172.33315622 36 182 C36.77085938 182.85335937 37.54171875 183.70671875 38.3359375 184.5859375 C53.85710858 200.91079381 78.06546025 214.28636079 100.98022461 215.10668945 C104.54998001 215.17090565 108.11718605 215.18561792 111.6875 215.1875 C112.89083984 215.19974609 114.09417969 215.21199219 115.33398438 215.22460938 C126.57016919 215.24282037 136.85701311 213.88582891 147.375 209.875 C148.18517578 209.56933105 148.99535156 209.26366211 149.83007812 208.94873047 C161.93201183 204.23260595 172.33315622 197.73228487 182 189 C182.85335937 188.22914063 183.70671875 187.45828125 184.5859375 186.6640625 C201.74716201 170.34769827 213.77093428 146.5734914 215.19091797 122.80419922 C215.26663733 119.55420535 215.27839062 116.31322608 215.25 113.0625 C215.24178223 111.916604 215.23356445 110.77070801 215.22509766 109.59008789 C214.89039874 84.3383143 206.1250455 61.72415841 189 43 C188.23042969 42.14921875 187.46085938 41.2984375 186.66796875 40.421875 C170.36599201 23.25081065 146.56700673 11.22867832 122.80419922 9.80908203 C119.55422112 9.73336303 116.31321079 9.72184594 113.0625 9.75 C111.3458313 9.76123901 111.3458313 9.76123901 109.59448242 9.77270508 C80.24623561 10.14743481 55.78696471 22.13921581 35.55859375 43.1015625 Z " fill="#FEFEFE" transform="translate(0,0)"/>
<path d="M0 0 C17.70660464 15.90315417 31.44697856 39.87361461 33 64 C33.15411999 68.27198037 33.18501916 72.53800734 33.1875 76.8125 C33.19974609 77.91142578 33.21199219 79.01035156 33.22460938 80.14257812 C33.24392646 91.06960818 31.77346357 101.15167966 27.875 111.375 C27.41649658 112.59026367 27.41649658 112.59026367 26.94873047 113.83007812 C16.429455 140.82333791 -4.03231638 160.28912246 -30.12353516 172.17919922 C-42.9953299 177.80956273 -55.92576373 179.37917895 -69.875 179.3125 C-71.1115332 179.30686035 -72.34806641 179.3012207 -73.62207031 179.29541016 C-82.15748294 179.18158963 -89.84520507 178.68783664 -98 176 C-98.62197266 175.80132324 -99.24394531 175.60264648 -99.88476562 175.39794922 C-126.55395123 166.7311131 -148.17581112 148.94758436 -161.27050781 123.99365234 C-168.96720071 108.80584831 -172.39768742 94.11471647 -172.25 77.0625 C-172.24250732 75.9180542 -172.23501465 74.7736084 -172.22729492 73.59448242 C-171.86792755 45.44939168 -160.93755837 22.39540992 -141.6875 2.25 C-102.32361645 -35.73559631 -40.6854214 -35.40661673 0 0 Z M-119 22 C-119.68449219 22.59167969 -120.36898437 23.18335937 -121.07421875 23.79296875 C-130.79351911 32.7484734 -137.04715221 44.52693827 -141 57 C-141.24492187 57.73089844 -141.48984375 58.46179688 -141.7421875 59.21484375 C-146.40552793 75.85594213 -142.71203577 95.93285575 -135 111 C-124.6674917 129.31327095 -108.87276304 141.70210705 -89 148 C-88.26910156 148.24492187 -87.53820312 148.48984375 -86.78515625 148.7421875 C-70.14405787 153.40552793 -50.06714425 149.71203577 -35 142 C-16.69839529 131.6740739 -4.33792965 115.8268786 2 96 C7.15927247 75.38771432 3.82778962 55.19333287 -7 37 C-9.45641082 33.45075711 -12.10716675 30.20058146 -15 27 C-15.61488281 26.30390625 -16.22976562 25.6078125 -16.86328125 24.890625 C-30.81895656 9.98145635 -49.1803887 3.43816621 -69.20043945 2.66772461 C-88.02904002 2.29779028 -105.08078424 9.44589121 -119 22 Z " fill="#0660AE" transform="translate(182,36)"/>
<path d="M0 0 C6.61440349 2.59851566 9.07500318 8.68727577 11.765625 14.82421875 C14.81684709 22.67435659 16.94004389 30.64754587 18 39 C18.66 39 19.32 39 20 39 C21.110682 37.79260954 22.16465549 36.53265169 23.1875 35.25 C27.7617433 30.00635525 30.78169123 27.31851303 37.7890625 26.625 C39.21303128 26.56852067 40.63766938 26.52710583 42.0625 26.5 C42.74755615 26.48130859 43.4326123 26.46261719 44.13842773 26.44335938 C50.22444463 26.51979287 53.79113175 28.79113175 58 33 C57.9375 35.4375 57.9375 35.4375 57 38 C54.25047034 40.1025815 51.81941769 41.05481963 48.5 42.0625 C44.19463707 43.86759947 43.04296595 47.10695114 41.11962891 51.1628418 C39.35257852 55.64057675 38.62724392 60.13009499 37.9375 64.875 C35.84259601 77.63253779 33.66257563 90.00907245 23.21484375 98.7421875 C18.86936823 101.20998841 13.90607638 101.53275463 9 102 C9.01160156 102.78246094 9.02320312 103.56492187 9.03515625 104.37109375 C9.04417969 105.38300781 9.05320312 106.39492187 9.0625 107.4375 C9.07410156 108.44683594 9.08570312 109.45617187 9.09765625 110.49609375 C9 113 9 113 8 114 C0.54135338 114.36090226 0.54135338 114.36090226 -3 112 C-3.7337249 107.86445966 -4 104.19994589 -4 100 C-4.515625 100.165 -5.03125 100.33 -5.5625 100.5 C-11.79588432 101.77864294 -16.40553879 101.00443287 -22 98 C-31.47752591 90.06532715 -33.81333422 79.01361402 -35.4765625 67.34375 C-37.51507544 53.3467457 -37.51507544 53.3467457 -45.3125 42.125 C-48.48554819 40.79674727 -51.6686806 39.84915985 -55 39 C-55.33 37.35 -55.66 35.7 -56 34 C-55.01 33.34 -54.02 32.68 -53 32 C-52.31731862 30.67479497 -51.6492959 29.34187818 -51 28 C-45.51491069 25.25745534 -35.98043495 26.1141485 -30.1875 27.8359375 C-24.63503735 30.70856574 -20.78050268 35.10114927 -17 40 C-16.67386719 38.72125 -16.34773438 37.4425 -16.01171875 36.125 C-15.57054053 34.41660776 -15.12912143 32.70827772 -14.6875 31 C-14.47416016 30.16082031 -14.26082031 29.32164063 -14.04101562 28.45703125 C-12.66379306 23.15369658 -11.01178528 18.09730932 -9 13 C-8.34 13 -7.68 13 -7 13 C-6.67 12.01 -6.34 11.02 -6 10 C-5.505 10.99 -5.505 10.99 -5 12 C-5.64272501 13.77514526 -6.36876186 15.52016186 -7.125 17.25 C-10.98189104 26.83280772 -12.8888465 36.91669643 -15 47 C-17.61645468 44.44067316 -20.03504167 41.81234428 -22.375 39 C-26.08996727 34.71901841 -29.54290588 31.81903137 -35 30 C-36.87313664 29.90661782 -38.74954362 29.87005157 -40.625 29.875 C-41.60726562 29.87242188 -42.58953125 29.86984375 -43.6015625 29.8671875 C-45.95225011 29.72994035 -45.95225011 29.72994035 -47 31 C-46.21496094 31.36351563 -45.42992188 31.72703125 -44.62109375 32.1015625 C-32.89005341 37.71518917 -22.25219391 45.79494358 -16.9375 58.1875 C-16.628125 59.115625 -16.31875 60.04375 -16 61 C-15.93683594 60.3709375 -15.87367187 59.741875 -15.80859375 59.09375 C-14.7916997 51.98619577 -12.32273536 47.80803689 -7 43 C-4.29816945 41.64908472 -1.88191794 41.66141942 1.125 41.4375 C2.22070312 41.35371094 3.31640625 41.26992187 4.4453125 41.18359375 C5.28835937 41.12300781 6.13140625 41.06242187 7 41 C6.67 40.67 6.34 40.34 6 40 C6.020625 38.96875 6.04125 37.9375 6.0625 36.875 C6.16171638 25.80245187 3.95052158 15.29820431 0 5 C-1.65 6.32 -3.3 7.64 -5 9 C-4.1875 6.5625 -4.1875 6.5625 -3 4 C-2.01 3.67 -1.02 3.34 0 3 C0 2.01 0 1.02 0 0 Z " fill="#FCF397" transform="translate(111,55)"/>
<path d="M0 0 C6.61440349 2.59851566 9.07500318 8.68727577 11.765625 14.82421875 C14.81684709 22.67435659 16.94004389 30.64754587 18 39 C18.66 39 19.32 39 20 39 C21.110682 37.79260954 22.16465549 36.53265169 23.1875 35.25 C27.7617433 30.00635525 30.78169123 27.31851303 37.7890625 26.625 C39.21303128 26.56852067 40.63766938 26.52710583 42.0625 26.5 C42.74755615 26.48130859 43.4326123 26.46261719 44.13842773 26.44335938 C50.22444463 26.51979287 53.79113175 28.79113175 58 33 C57.9375 35.4375 57.9375 35.4375 57 38 C54.25047034 40.1025815 51.81941769 41.05481963 48.5 42.0625 C44.19463707 43.86759947 43.04296595 47.10695114 41.11962891 51.1628418 C39.35257852 55.64057675 38.62724392 60.13009499 37.9375 64.875 C35.84259601 77.63253779 33.66257563 90.00907245 23.21484375 98.7421875 C18.86936823 101.20998841 13.90607638 101.53275463 9 102 C9.01160156 102.78246094 9.02320312 103.56492187 9.03515625 104.37109375 C9.04417969 105.38300781 9.05320312 106.39492187 9.0625 107.4375 C9.07410156 108.44683594 9.08570312 109.45617187 9.09765625 110.49609375 C9 113 9 113 8 114 C0.54135338 114.36090226 0.54135338 114.36090226 -3 112 C-3.7337249 107.86445966 -4 104.19994589 -4 100 C-4.515625 100.165 -5.03125 100.33 -5.5625 100.5 C-11.79588432 101.77864294 -16.40553879 101.00443287 -22 98 C-31.47752591 90.06532715 -33.81333422 79.01361402 -35.4765625 67.34375 C-37.51507544 53.3467457 -37.51507544 53.3467457 -45.3125 42.125 C-48.48554819 40.79674727 -51.6686806 39.84915985 -55 39 C-55.33 37.35 -55.66 35.7 -56 34 C-55.01 33.34 -54.02 32.68 -53 32 C-52.31731862 30.67479497 -51.6492959 29.34187818 -51 28 C-45.51491069 25.25745534 -35.98043495 26.1141485 -30.1875 27.8359375 C-24.63503735 30.70856574 -20.78050268 35.10114927 -17 40 C-16.67386719 38.72125 -16.34773438 37.4425 -16.01171875 36.125 C-15.57054053 34.41660776 -15.12912143 32.70827772 -14.6875 31 C-14.47416016 30.16082031 -14.26082031 29.32164063 -14.04101562 28.45703125 C-12.66379306 23.15369658 -11.01178528 18.09730932 -9 13 C-8.34 13 -7.68 13 -7 13 C-6.67 12.01 -6.34 11.02 -6 10 C-5.505 10.99 -5.505 10.99 -5 12 C-5.64272501 13.77514526 -6.36876186 15.52016186 -7.125 17.25 C-10.98189104 26.83280772 -12.8888465 36.91669643 -15 47 C-17.61645468 44.44067316 -20.03504167 41.81234428 -22.375 39 C-26.55054879 34.18826245 -30.88751921 30.33103561 -37.5234375 29.796875 C-44.77225532 29.58318483 -44.77225532 29.58318483 -51 33 C-51.495 33.495 -51.495 33.495 -52 34 C-50.948125 34.32871094 -50.948125 34.32871094 -49.875 34.6640625 C-35.85998809 39.34842789 -30.96565056 46.42414017 -24.08935547 59.01513672 C-22.72867099 61.49437581 -21.29667038 63.93037133 -19.875 66.375 C-18.34095458 69.03048552 -18 69.82233141 -18 73 C-16.7315625 73.2784375 -16.7315625 73.2784375 -15.4375 73.5625 C-9.73732094 75.94621124 -5.94621124 79.73732094 -3.5625 85.4375 C-3.376875 86.283125 -3.19125 87.12875 -3 88 C-1.865625 87.814375 -0.73125 87.62875 0.4375 87.4375 C2.2009375 87.2209375 2.2009375 87.2209375 4 87 C4.33 87.33 4.66 87.66 5 88 C5.3403125 87.34773438 5.680625 86.69546875 6.03125 86.0234375 C9.34606339 80.04619421 12.62217732 74.93472276 19 72 C23.78838143 71.14493189 26.92043695 71.2802913 31 74 C31 74.66 31 75.32 31 76 C31.66 76 32.32 76 33 76 C33.09796875 74.91203125 33.1959375 73.8240625 33.296875 72.703125 C35.59298899 49.28490066 35.59298899 49.28490066 43.984375 40.4921875 C47.34537143 38.00400797 50.89760269 37.37209953 55 37 C53.08528815 33.36204749 51.85405243 31.48336992 48 30 C39.93045629 29.04846115 34.33175593 30.29265254 27.5 34.5625 C23.71073058 38.25703769 20.91377467 42.59994834 18 47 C17.34 46.67 16.68 46.34 16 46 C15.39331055 43.85791016 15.39331055 43.85791016 14.88671875 41.0390625 C14.69013672 40.00910156 14.49355469 38.97914062 14.29101562 37.91796875 C13.89597837 35.76252274 13.50518537 33.60629348 13.11914062 31.44921875 C11.24264934 21.68663708 7.87746967 13.05431029 2 5 C-0.49361571 6.20381448 -2.68143083 7.45428722 -5 9 C-4.1875 6.5625 -4.1875 6.5625 -3 4 C-2.01 3.67 -1.02 3.34 0 3 C0 2.01 0 1.02 0 0 Z " fill="#F4DF55" transform="translate(111,55)"/>
<path d="M0 0 C20.48740641 17.93037851 35.26536439 43.30319488 37.37890625 70.80859375 C39.05706199 103.13339201 29.51126227 131.17796314 8.015625 155.48046875 C-10.54310111 175.04154832 -36.88252268 186.89670611 -63.7734375 188.09375 C-94.47654205 188.88534303 -120.37250007 178.66979866 -143.3046875 158.44140625 C-163.60274344 139.12500356 -175.25529776 111.90439396 -175.97485352 83.99536133 C-176.21848675 53.17715771 -164.86565811 27.03050919 -143.87109375 4.62109375 C-103.90936024 -33.31006387 -42.32855258 -35.3894456 0 0 Z M-146.0625 11.91015625 C-163.6131574 31.79196967 -171.79335781 55.36957525 -171.80859375 81.62109375 C-171.82083984 82.72001953 -171.83308594 83.81894531 -171.84570312 84.95117188 C-171.86502021 95.87820193 -170.39455732 105.96027341 -166.49609375 116.18359375 C-166.1904248 116.99376953 -165.88475586 117.80394531 -165.56982422 118.63867188 C-160.8536997 130.74060558 -154.35337862 141.14174997 -145.62109375 150.80859375 C-144.85023438 151.66195312 -144.079375 152.5153125 -143.28515625 153.39453125 C-127.76398517 169.71938756 -103.5556335 183.09495454 -80.64086914 183.9152832 C-77.07111374 183.9794994 -73.5039077 183.99421167 -69.93359375 183.99609375 C-68.73025391 184.00833984 -67.52691406 184.02058594 -66.28710938 184.03320312 C-55.05092456 184.05141412 -44.76408064 182.69442266 -34.24609375 178.68359375 C-33.43591797 178.3779248 -32.62574219 178.07225586 -31.79101562 177.75732422 C-19.68908192 173.0411997 -9.28793753 166.54087862 0.37890625 157.80859375 C1.23226562 157.03773438 2.085625 156.266875 2.96484375 155.47265625 C20.12606826 139.15629202 32.14984053 115.38208515 33.56982422 91.61279297 C33.64554358 88.3627991 33.65729687 85.12181983 33.62890625 81.87109375 C33.62068848 80.72519775 33.6124707 79.57930176 33.60400391 78.39868164 C33.26930499 53.14690805 24.50395175 30.53275216 7.37890625 11.80859375 C6.60933594 10.9578125 5.83976563 10.10703125 5.046875 9.23046875 C-11.25510174 -7.9405956 -35.05408702 -19.96272793 -58.81689453 -21.38232422 C-62.06687263 -21.45804322 -65.30788296 -21.46956031 -68.55859375 -21.44140625 C-70.27526245 -21.43016724 -70.27526245 -21.43016724 -72.02661133 -21.41870117 C-101.37485814 -21.04397144 -125.83412904 -9.05219044 -146.0625 11.91015625 Z " fill="#D8A326" transform="translate(181.62109375,31.19140625)"/>
<path d="M0 0 C0.495 0.99 0.495 0.99 1 2 C0.35727499 3.77514526 -0.36876186 5.52016186 -1.125 7.25 C-4.98189104 16.83280772 -6.8888465 26.91669643 -9 37 C-11.61645468 34.44067316 -14.03504167 31.81234428 -16.375 29 C-20.55054879 24.18826245 -24.88751921 20.33103561 -31.5234375 19.796875 C-38.77225532 19.58318483 -38.77225532 19.58318483 -45 23 C-45.33 23.33 -45.66 23.66 -46 24 C-45.29875 24.21914062 -44.5975 24.43828125 -43.875 24.6640625 C-29.85998809 29.34842789 -24.96565056 36.42414017 -18.08935547 49.01513672 C-16.72867099 51.49437581 -15.29667038 53.93037133 -13.875 56.375 C-12.34095458 59.03048552 -12 59.82233141 -12 63 C-10.7315625 63.2784375 -10.7315625 63.2784375 -9.4375 63.5625 C-4.37506649 65.67951765 -0.60329979 69.28591734 2.1953125 74.0234375 C3.29506557 76.72477272 3.13107164 79.11642395 3 82 C2.34 82 1.68 82 1 82 C0.34 81.01 -0.32 80.02 -1 79 C-2.010625 79.185625 -3.02125 79.37125 -4.0625 79.5625 C-10.3143794 80.25715327 -14.80125598 79.62336705 -20 76 C-18.60506348 80.43843439 -16.48101799 82.9434964 -13 86 C-7.80444168 87.73185277 -3.55914116 87.69295163 1.375 85.5 C2.24125 85.005 3.1075 84.51 4 84 C4.66 84 5.32 84 6 84 C6 85.98 6 87.96 6 90 C-10.26865231 91.73783545 -10.26865231 91.73783545 -16 88 C-25.47752591 80.06532715 -27.81333422 69.01361402 -29.4765625 57.34375 C-31.51507544 43.3467457 -31.51507544 43.3467457 -39.3125 32.125 C-42.48554819 30.79674727 -45.6686806 29.84915985 -49 29 C-49.33 27.35 -49.66 25.7 -50 24 C-49.01 23.34 -48.02 22.68 -47 22 C-46.31731862 20.67479497 -45.6492959 19.34187818 -45 18 C-39.51491069 15.25745534 -29.98043495 16.1141485 -24.1875 17.8359375 C-18.63503735 20.70856574 -14.78050268 25.10114927 -11 30 C-10.51080078 28.081875 -10.51080078 28.081875 -10.01171875 26.125 C-9.57054053 24.41660776 -9.12912143 22.70827772 -8.6875 21 C-8.47416016 20.16082031 -8.26082031 19.32164063 -8.04101562 18.45703125 C-6.66379306 13.15369658 -5.01178528 8.09730932 -3 3 C-2.34 3 -1.68 3 -1 3 C-0.67 2.01 -0.34 1.02 0 0 Z " fill="#F7E259" transform="translate(105,65)"/>
<path d="M0 0 C11.72516944 9.97061171 19.37008285 22.39047152 24 37 C24.24492187 37.73089844 24.48984375 38.46179688 24.7421875 39.21484375 C29.40552793 55.85594213 25.71203577 75.93285575 18 91 C7.87422076 108.9468657 -8.19309507 122.24414729 -28 128 C-48.75775992 132.96097407 -68.6531536 129.91915343 -87 119 C-90.54924289 116.54358918 -93.79941854 113.89283325 -97 111 C-97.69609375 110.38511719 -98.3921875 109.77023438 -99.109375 109.13671875 C-114.01854365 95.18104344 -120.56183379 76.8196113 -121.33227539 56.79956055 C-121.70220972 37.97095998 -114.55410879 20.91921576 -102 7 C-101.40832031 6.31550781 -100.81664063 5.63101563 -100.20703125 4.92578125 C-91.2515266 -4.79351911 -79.47306173 -11.04715221 -67 -15 C-66.26910156 -15.24492188 -65.53820312 -15.48984375 -64.78515625 -15.7421875 C-42.34288237 -22.03119323 -17.58735179 -14.10198351 0 0 Z M-101.66796875 9.32421875 C-113.77008584 23.21023249 -119.80341048 41.36324111 -119.28515625 59.75 C-117.41144226 81.10520603 -107.5390259 99.35898285 -91.3125 113.1875 C-76.63576186 124.44574323 -59.33640752 129.11560001 -41 128 C-19.79101392 125.02041899 -1.8238286 114.6772475 11.1875 97.65234375 C21.7332633 82.22007375 26.21019104 63.04211455 23.3125 44.5625 C19.13500237 24.63235505 8.16304578 7.27055595 -9 -4 C-40.64135844 -21.65329287 -76.61460649 -17.19639752 -101.66796875 9.32421875 Z " fill="#D3A12D" transform="translate(160,56)"/>
<path d="M0 0 C5.35629052 10.48170646 7.03527812 22.20398998 6.98828125 33.921875 C6.84720478 36.06287856 6.84720478 36.06287856 8 38 C6.71416016 38.00386719 6.71416016 38.00386719 5.40234375 38.0078125 C-1.294171 38.23430116 -5.85036023 38.52605096 -10.73046875 43.33203125 C-13.42831904 46.87659148 -14.27542367 49.82203313 -14.625 54.25 C-14.69976562 55.14203125 -14.77453125 56.0340625 -14.8515625 56.953125 C-14.90054688 57.62859375 -14.94953125 58.3040625 -15 59 C-17 57 -17 57 -18.27734375 53.81640625 C-20.02863753 49.58548199 -22.57673114 46.37496938 -25.5625 42.9375 C-26.09117676 42.32551758 -26.61985352 41.71353516 -27.16455078 41.08300781 C-32.97976903 34.57903058 -39.484574 30.24090158 -48 28 C-47.01 26.515 -47.01 26.515 -46 25 C-40.03302131 23.88495853 -34.17233745 24.55737793 -28.9140625 27.59765625 C-23.49313078 31.56931847 -19.30190742 36.1581638 -16 42 C-14.06919949 34.82565495 -12.14499057 27.65361539 -10.375 20.4375 C-9.416349 16.55574924 -8.3596051 12.76506028 -7 9 C-7.66 8.67 -8.32 8.34 -9 8 C-8.25 6.0625 -8.25 6.0625 -7 4 C-5.0625 3.4375 -5.0625 3.4375 -3 3 C-1.26973898 1.52109931 -1.26973898 1.52109931 0 0 Z " fill="#FDF6AD" transform="translate(111,59)"/>
<path d="M0 0 C4.42187237 1.71075718 7.21889665 3.92598289 10 7.75 C11.67681166 13.1996379 11.74483092 17.84826622 9.875 23.25 C7.0252053 27.4296989 3.89407029 30.36864324 -1 32 C-7.46708082 32.5389234 -10.69593897 31.77404343 -16 28 C-20.53235137 23.22910382 -21.38678221 19.57367902 -21.27734375 13.01953125 C-20.60117866 8.09590657 -16.70933773 3.89645828 -12.89453125 0.921875 C-8.75915824 -1.09038898 -4.43263429 -0.77853633 0 0 Z " fill="#263383" transform="translate(117,97)"/>
<path d="M0 0 C8.5335835 0.60954168 14.53718561 3.36137033 21 9 C27.0759889 16.41086524 32.4152153 24.43796681 36.3125 33.1875 C38.78509604 38.2896823 41.88560509 40.69959225 47 43 C54.44045194 45.48015065 60.24284219 43.22247295 67 40 C71.43919529 37.65933339 73.5934559 35.80078651 75.37109375 31.046875 C75.81886906 29.58951933 76.22328368 28.11854024 76.59765625 26.640625 C79.05564508 17.16191358 84.09687379 10.41846961 92.4453125 5.21875 C97.0768483 3.00920998 101.98266738 1.96781035 107 1 C107 1.99 107 2.98 107 4 C106.41992188 4.13535156 105.83984375 4.27070312 105.2421875 4.41015625 C98.99433478 6.13192424 95.29777036 8.34523426 92 14 C87.84985804 23.13313555 86.53777608 33.16755294 85 43 C84.34 43 83.68 43 83 43 C83 42.34 83 41.68 83 41 C78.21345312 39.40448437 73.54911138 38.83165728 68.84375 40.98828125 C63.19520701 44.8444981 60.11958554 50.02079437 57 56 C56.67 55.34 56.34 54.68 56 54 C52.535 54.495 52.535 54.495 49 55 C48.70867187 54.48050781 48.41734375 53.96101563 48.1171875 53.42578125 C45.07029131 48.24222515 41.88486307 43.46541004 36.01171875 41.25 C33.02974159 39.39712099 32.31266465 37.04653157 30.875 33.875 C22.58094601 15.5289962 22.58094601 15.5289962 7 4 C4.31273996 3.12751297 1.78726243 2.51615971 -1 2 C-0.67 1.34 -0.34 0.68 0 0 Z " fill="#FEF182" transform="translate(59,88)"/>
<path d="M0 0 C6.61440349 2.59851566 9.07500318 8.68727577 11.765625 14.82421875 C14.81684709 22.67435659 16.94004389 30.64754587 18 39 C18.66 39 19.32 39 20 39 C21.110682 37.79260954 22.16465549 36.53265169 23.1875 35.25 C27.7617433 30.00635525 30.78169123 27.31851303 37.7890625 26.625 C39.21303128 26.56852067 40.63766938 26.52710583 42.0625 26.5 C42.74755615 26.48130859 43.4326123 26.46261719 44.13842773 26.44335938 C50.22444463 26.51979287 53.79113175 28.79113175 58 33 C57.9375 35.4375 57.9375 35.4375 57 38 C54.25047034 40.1025815 51.81941769 41.05481963 48.5 42.0625 C44.19463707 43.86759947 43.04296595 47.10695114 41.11962891 51.1628418 C39.35257852 55.64057675 38.62724392 60.13009499 37.9375 64.875 C35.82232115 77.75600752 33.63686188 90.0822164 22.99609375 98.80078125 C19.55096743 100.87055381 15.97178597 101.33682991 12 101 C10.35 100.34 8.7 99.68 7 99 C7 103.62 7 108.24 7 113 C3.625 112.6875 3.625 112.6875 0 112 C-0.66 111.01 -1.32 110.02 -2 109 C2.75 109.875 2.75 109.875 5 111 C4.83628906 110.29488281 4.67257813 109.58976562 4.50390625 108.86328125 C3.98300176 105.90341312 3.90133268 103.18938727 3.9375 100.1875 C3.94652344 99.21167969 3.95554687 98.23585938 3.96484375 97.23046875 C3.97644531 96.49441406 3.98804687 95.75835937 4 95 C4.969375 95.350625 5.93875 95.70125 6.9375 96.0625 C12.71015607 97.68678987 17.81275426 96.96743562 23.25 94.5625 C30.54678591 87.76322222 31.77272844 78.90730795 33.2578125 69.47265625 C33.96552284 65.03734833 34.88570241 60.67820142 35.9375 56.3125 C36.23527344 55.05050781 36.53304687 53.78851563 36.83984375 52.48828125 C38.95699695 46.12256473 42.48775539 41.78291297 48 38 C51.875 37.1875 51.875 37.1875 55 37 C53.08528815 33.36204749 51.85405243 31.48336992 48 30 C39.93045629 29.04846115 34.33175593 30.29265254 27.5 34.5625 C23.71073058 38.25703769 20.91377467 42.59994834 18 47 C17.34 46.67 16.68 46.34 16 46 C15.39331055 43.85791016 15.39331055 43.85791016 14.88671875 41.0390625 C14.5918457 39.49412109 14.5918457 39.49412109 14.29101562 37.91796875 C13.89597837 35.76252274 13.50518537 33.60629348 13.11914062 31.44921875 C11.24264934 21.68663708 7.87746967 13.05431029 2 5 C-0.49361571 6.20381448 -2.68143083 7.45428722 -5 9 C-4.1875 6.5625 -4.1875 6.5625 -3 4 C-2.01 3.67 -1.02 3.34 0 3 C0 2.01 0 1.02 0 0 Z " fill="#432C13" transform="translate(111,55)"/>
<path d="M0 0 C6.61440349 2.59851566 9.07500318 8.68727577 11.765625 14.82421875 C14.81684709 22.67435659 16.94004389 30.64754587 18 39 C18.66 39 19.32 39 20 39 C21.110682 37.79260954 22.16465549 36.53265169 23.1875 35.25 C27.7617433 30.00635525 30.78169123 27.31851303 37.7890625 26.625 C39.21303128 26.56852067 40.63766938 26.52710583 42.0625 26.5 C42.74755615 26.48130859 43.4326123 26.46261719 44.13842773 26.44335938 C49.20258567 26.50695947 52.10718131 27.82937844 56 31 C57.375 33.25 57.375 33.25 58 35 C57.01 35.33 56.02 35.66 55 36 C54.21625 35.195625 53.4325 34.39125 52.625 33.5625 C48.41737986 29.45506129 45.5170509 29.72171711 39.82421875 29.78125 C33.87712389 30.24188252 29.25850079 32.84796173 25 37 C22.55185224 40.25906463 20.25025885 43.60191459 18 47 C17.34 46.67 16.68 46.34 16 46 C15.39331055 43.85791016 15.39331055 43.85791016 14.88671875 41.0390625 C14.5918457 39.49412109 14.5918457 39.49412109 14.29101562 37.91796875 C13.89597837 35.76252274 13.50518537 33.60629348 13.11914062 31.44921875 C11.24264934 21.68663708 7.87746967 13.05431029 2 5 C-0.49361571 6.20381448 -2.68143083 7.45428722 -5 9 C-4.1875 6.5625 -4.1875 6.5625 -3 4 C-2.01 3.67 -1.02 3.34 0 3 C0 2.01 0 1.02 0 0 Z " fill="#816225" transform="translate(111,55)"/>
<path d="M0 0 C0.99 0.33 1.98 0.66 3 1 C2.2575 1.7425 1.515 2.485 0.75 3.25 C-6.46202304 12.03073992 -7.29928274 25.12571693 -9 36 C-9.66 36 -10.32 36 -11 36 C-11 35.34 -11 34.68 -11 34 C-13.97 33.34 -16.94 32.68 -20 32 C-19.4225 30.741875 -18.845 29.48375 -18.25 28.1875 C-16.67173015 24.70986401 -15.47841579 21.27678083 -14.375 17.625 C-12.05543941 11.00302864 -6.43294741 3.21647371 0 0 Z " fill="#FAE557" transform="translate(153,95)"/>
<path d="M0 0 C3.89035833 1.59636674 6.97617738 3.40947433 9.27734375 6.984375 C10 9 10 9 9 12 C8.484375 11.236875 7.96875 10.47375 7.4375 9.6875 C4.43422317 6.37619478 2.28766164 5.26521163 -2 4 C-6.69452956 3.94363344 -11.99628174 4.45217929 -16 7 C-18.12246661 11.05198172 -18.32504143 14.67798039 -17.60546875 19.10546875 C-16.30362716 23.17897309 -13.25533288 25.23285213 -9.75 27.375 C-5.63379041 28.31050218 -2.05514649 28.21368821 2 27 C5.90705968 24.53325469 8.0756742 21.53374686 9.375 17.125 C9.684375 15.578125 9.684375 15.578125 10 14 C10.33 14 10.66 14 11 14 C10.97183766 20.20979541 10.00012051 24.12221076 5.6015625 28.625 C1.78985748 31.89748821 -1.95481465 32.45764676 -6.9453125 32.31640625 C-11.73236502 31.57923656 -15.07113752 28.97774998 -18.375 25.5 C-21.30056641 20.9991286 -21.73096243 16.32264191 -21 11 C-16.22714973 1.63787062 -10.29222109 -1.83425722 0 0 Z " fill="#27255D" transform="translate(117,97)"/>
<path d="M0 0 C2 2 2 2 2.1875 5 C2 8 2 8 1 10 C-2.3307408 10.65109396 -5.64433814 11.16401365 -9.00976562 11.59179688 C-12.93200302 12.20543145 -14.56904744 12.56354885 -17.44921875 15.48046875 C-18.97483046 17.87634428 -18.97483046 17.87634428 -20 20 C-20.99 20 -21.98 20 -23 20 C-22.65221447 13.21818212 -18.9743458 8.06662861 -14.36328125 3.3125 C-9.9965999 -0.27041803 -5.5508121 -1.07398605 0 0 Z " fill="#A8882D" transform="translate(139,127)"/>
<path d="M0 0 C0 0.66 0 1.32 0 2 C-3.21615928 3.06966012 -4.87523526 2.93622227 -8 1.6875 C-18.9282311 -2.24039528 -29.98960935 -2.21992517 -41.4375 -2 C-44.26951585 -1.94653572 -47.10126129 -1.90679 -49.93359375 -1.875 C-51.17165771 -1.85179687 -52.40972168 -1.82859375 -53.68530273 -1.8046875 C-56.92281455 -1.99545199 -59.09960704 -2.60192184 -62 -4 C-62 -4.33 -62 -4.66 -62 -5 C-41.47378447 -9.26518764 -19.40220729 -8.25536682 0 0 Z " fill="#D5A128" transform="translate(151,13)"/>
<path d="M0 0 C0.33 0 0.66 0 1 0 C5.11070685 19.78277671 4.2378877 41.04362746 -3 60 C-4.32 60 -5.64 60 -7 60 C-6.72285156 58.84242188 -6.44570312 57.68484375 -6.16015625 56.4921875 C-5.79416563 54.95315001 -5.42828609 53.41408611 -5.0625 51.875 C-4.88009766 51.11445313 -4.69769531 50.35390625 -4.50976562 49.5703125 C-4.33251953 48.82265625 -4.15527344 48.075 -3.97265625 47.3046875 C-3.72914429 46.2835083 -3.72914429 46.2835083 -3.48071289 45.24169922 C-2.34283687 39.93546376 -1.89619418 35.0261943 -1.97265625 29.58984375 C-1.98529563 28.17383051 -1.99765709 26.75781476 -2.00976562 25.34179688 C-2.03460237 23.13427723 -2.06265998 20.92689141 -2.09594727 18.71948242 C-2.1262392 16.57209447 -2.14394282 14.42487774 -2.16015625 12.27734375 C-2.17699463 11.00109131 -2.19383301 9.72483887 -2.21118164 8.40991211 C-2.00815285 5.13164266 -1.4201413 2.9337913 0 0 Z " fill="#D7A326" transform="translate(216,89)"/>
<path d="M0 0 C5.35629052 10.48170646 7.03527812 22.20398998 6.98828125 33.921875 C6.84720478 36.06287856 6.84720478 36.06287856 8 38 C4.7 38 1.4 38 -2 38 C-2 34 -2 34 -0.4375 31 C2.17262193 25.2602058 1.00973598 18.61411597 -0.640625 12.70703125 C-1.4012458 10.60095271 -1.4012458 10.60095271 -3 8 C-3.99 7.67 -4.98 7.34 -6 7 C-6.33 7.66 -6.66 8.32 -7 9 C-7.66 8.67 -8.32 8.34 -9 8 C-8.25 6.0625 -8.25 6.0625 -7 4 C-5.0625 3.4375 -5.0625 3.4375 -3 3 C-1.26973898 1.52109931 -1.26973898 1.52109931 0 0 Z " fill="#FBF39F" transform="translate(111,59)"/>
<path d="M0 0 C3.74225404 1.1566967 5.28964665 1.79776291 7.4375 5.0625 C8.00533945 9.03737617 8.06090519 11.12739221 5.8125 14.5 C2.70206309 16.54634007 1.10072334 16.66057728 -2.5625 16.0625 C-6.29650421 13.98805322 -7.35197087 12.70578346 -8.6875 8.625 C-8.5625 5.0625 -8.5625 5.0625 -6.5625 2.0625 C-3.5625 0.0625 -3.5625 0.0625 0 0 Z " fill="#EFF2F8" transform="translate(36.5625,61.9375)"/>
<path d="M0 0 C2.5 2.125 2.5 2.125 4 5 C4 8.8137751 3.84985071 11.02424548 1.3125 13.9375 C-1.7864448 15.3613395 -3.62182812 15.55153827 -7 15 C-10.66900829 12.36788535 -11.84009531 10.91145674 -12.625 6.4375 C-12 3 -12 3 -9.9375 0.5 C-6.05105372 -1.48456831 -4.14204528 -1.28026854 0 0 Z " fill="#EEF2F8" transform="translate(64,36)"/>
<path d="M0 0 C2.95552697 2.02220266 3.82481182 3.52596139 5.0625 6.875 C5 10 5 10 2.9375 13.3125 C-0.30851157 16.28225526 -1.76876982 16.50117259 -6 17 C-7.00484204 15.04414675 -8.00373805 13.08523763 -9 11.125 C-9.556875 10.03445312 -10.11375 8.94390625 -10.6875 7.8203125 C-12 5 -12 5 -12 3 C-8.06159085 -0.10298903 -4.93938307 -0.62864875 0 0 Z " fill="#ECF1F7" transform="translate(78,26)"/>
<path d="M0 0 C8.01825871 6.87279318 10.73852619 16.39402684 12.8125 26.4375 C13.02841797 27.41654297 13.24433594 28.39558594 13.46679688 29.40429688 C15 36.48623512 15 36.48623512 15 40 C11.46041598 38.82013866 11.27339518 38.32222286 9.625 35.125 C6.12258319 27.82388944 4.466942 19.92800621 2.55322266 12.09960938 C2.07021643 10.26648776 1.4719535 8.46452009 0.85546875 6.671875 C0 4 0 4 0 0 Z " fill="#FEF183" transform="translate(112,59)"/>
<path d="M0 0 C0.639375 0.474375 1.27875 0.94875 1.9375 1.4375 C7.56191231 4.30709812 12.91974005 4.28975211 19 3 C21 5 21 5 21 8 C22.32 8.33 23.64 8.66 25 9 C20.80614842 12.32615815 17.55851678 13.36723649 12.125 13.27734375 C6.90362875 12.59587802 3.75094749 9.91991068 0.5 5.9375 C0.005 4.968125 -0.49 3.99875 -1 3 C-0.67 2.01 -0.34 1.02 0 0 Z " fill="#F9E55E" transform="translate(85,140)"/>
<path d="M0 0 C0.495 1.98 0.495 1.98 1 4 C-0.93625098 4.98163422 -2.87404539 5.96022454 -4.8125 6.9375 C-5.89144531 7.48277344 -6.97039062 8.02804688 -8.08203125 8.58984375 C-11 10 -11 10 -14 11 C-14.13051758 11.74459473 -14.26103516 12.48918945 -14.39550781 13.25634766 C-21.49237288 53.44498725 -21.49237288 53.44498725 -28 60 C-33.46222362 63.78082486 -38.37003749 65.7206481 -45 65 C-45 64.67 -45 64.34 -45 64 C-44.443125 63.93683594 -43.88625 63.87367188 -43.3125 63.80859375 C-36.59216202 62.73016113 -32.40687595 60.18987441 -28 55 C-22.04206501 46.09111289 -20.50308906 32.98320963 -19.0625 22.5625 C-18.07950891 16.24699974 -16.02063926 9.66089167 -11.09765625 5.32421875 C-9.02581143 4.01629437 -7.12603512 3.1649876 -4.8125 2.375 C-2.17114493 1.56767953 -2.17114493 1.56767953 0 0 Z " fill="#BAB5B5" transform="translate(168,92)"/>
<path d="M0 0 C10.74739021 -0.68844492 10.74739021 -0.68844492 14.6875 1.875 C15.450625 2.57625 16.21375 3.2775 17 4 C17 4.66 17 5.32 17 6 C13.15337068 7.14580448 9.38108637 8.12638699 5.4375 8.875 C1.27650446 9.7610723 -1.56058946 11.46138746 -5 14 C-5.99 14.33 -6.98 14.66 -8 15 C-7.71313099 10.26666138 -5.48347427 7.95119142 -2.375 4.6484375 C-0.77554129 2.9346793 -0.77554129 2.9346793 0 0 Z " fill="#FEF6A3" transform="translate(148,84)"/>
<path d="M0 0 C0.495 0.99 0.495 0.99 1 2 C0.35727499 3.77514526 -0.36876186 5.52016186 -1.125 7.25 C-4.98189104 16.83280772 -6.8888465 26.91669643 -9 37 C-11.61645468 34.44067316 -14.03504167 31.81234428 -16.375 29 C-20.08996727 24.71901841 -23.54290588 21.81903137 -29 20 C-31.39490986 19.93029948 -33.79167691 19.91551997 -36.1875 19.9375 C-37.45980469 19.94652344 -38.73210937 19.95554687 -40.04296875 19.96484375 C-41.01878906 19.97644531 -41.99460938 19.98804687 -43 20 C-40.13358613 17.13358613 -37.21862919 17.57333323 -33.375 17.5625 C-26.6083147 17.57376029 -22.11184106 18.28949014 -17 23 C-15.90821908 24.20881542 -14.83746233 25.43696707 -13.7890625 26.68359375 C-12.99943115 27.61836548 -12.99943115 27.61836548 -12.19384766 28.57202148 C-11.60289307 29.27887085 -11.60289307 29.27887085 -11 30 C-10.51080078 28.081875 -10.51080078 28.081875 -10.01171875 26.125 C-9.57054053 24.41660776 -9.12912143 22.70827772 -8.6875 21 C-8.47416016 20.16082031 -8.26082031 19.32164063 -8.04101562 18.45703125 C-6.66379306 13.15369658 -5.01178528 8.09730932 -3 3 C-2.34 3 -1.68 3 -1 3 C-0.67 2.01 -0.34 1.02 0 0 Z " fill="#B79329" transform="translate(105,65)"/>
<path d="M0 0 C4.06276455 4.06276455 3.05581182 11.72970142 3.0625 17.21484375 C3.03879554 20.58285292 2.99984985 23.95049567 2.9609375 27.31835938 C2.91430146 33.95233539 3.16664504 40.41593778 4 47 C3.34 47 2.68 47 2 47 C-1.56014056 39.260564 -2.1935651 32.40058507 -2.1875 23.9375 C-2.18814453 23.01171143 -2.18878906 22.08592285 -2.18945312 21.13208008 C-2.13419516 13.92028748 -1.46997098 7.07423534 0 0 Z " fill="#CD9C28" transform="translate(8,89)"/>
<path d="M0 0 C2 3 2 3 3 6 C5.31 6.33 7.62 6.66 10 7 C10 7.66 10 8.32 10 9 C8 10.625 8 10.625 6 12 C6.33 14.64 6.66 17.28 7 20 C3.535 18.02 3.535 18.02 0 16 C-1.98 17.32 -3.96 18.64 -6 20 C-5.731875 18.783125 -5.46375 17.56625 -5.1875 16.3125 C-4.82432666 14.13313307 -4.82432666 14.13313307 -5 12 C-7.27127334 8.97590636 -7.27127334 8.97590636 -10 7 C-7.36 7 -4.72 7 -2 7 C-1.34 4.69 -0.68 2.38 0 0 Z " fill="#EBEBEE" transform="translate(112,102)"/>
<path d="M0 0 C3.35620271 1.38877354 5.07298728 2.91677965 7 6 C7 6.66 7 7.32 7 8 C7.99 8.33 8.98 8.66 10 9 C13.38862772 14.81393319 14.49120673 20.3687091 14 27 C14.66 27 15.32 27 16 27 C16.66 28.32 17.32 29.64 18 31 C18.763125 30.319375 19.52625 29.63875 20.3125 28.9375 C21.199375 28.298125 22.08625 27.65875 23 27 C23.99 27.33 24.98 27.66 26 28 C25.46890625 28.45890625 24.9378125 28.9178125 24.390625 29.390625 C23.33101562 30.31101562 23.33101562 30.31101562 22.25 31.25 C21.20585937 32.15492187 21.20585937 32.15492187 20.140625 33.078125 C18.01727716 34.98448839 15.99932129 36.96465491 14 39 C13.84144531 38.23558594 13.68289062 37.47117188 13.51953125 36.68359375 C10.86534106 24.49778134 7.62613342 12.67826885 1 2 C0.67 1.34 0.34 0.68 0 0 Z " fill="#E8E7E7" transform="translate(115,57)"/>
<path d="M0 0 C1.32 0.66 2.64 1.32 4 2 C3.39009109 5.55780196 2.4216319 8.6828589 1 12 C1.33 11.67 1.66 11.34 2 11 C3.99371825 9.65729179 5.9934562 8.32346506 8 7 C8.99 8.485 8.99 8.485 10 10 C6.37 12.97 2.74 15.94 -1 19 C-2.32 18.34 -3.64 17.68 -5 17 C-4.01 13.7 -3.02 10.4 -2 7 C-3.65 8.65 -5.3 10.3 -7 12 C-7.99 11.67 -8.98 11.34 -10 11 C-8.55218207 7.55571735 -6.72305391 5.63869038 -3.875 3.25 C-3.15054688 2.63640625 -2.42609375 2.0228125 -1.6796875 1.390625 C-0.84824219 0.70226563 -0.84824219 0.70226563 0 0 Z " fill="#EFF3F8" transform="translate(178,46)"/>
<path d="M0 0 C2.875 2.4375 2.875 2.4375 5 5 C7.06352135 6.15721591 7.06352135 6.15721591 9 7 C8.74476126 8.62752231 8.47025506 10.25203196 8.1875 11.875 C8.03667969 12.77992187 7.88585937 13.68484375 7.73046875 14.6171875 C7 17 7 17 4 19 C4.33 18.01 4.66 17.02 5 16 C5.03954234 13.66700175 5.04401732 11.33291811 5 9 C4.07767578 8.99613281 4.07767578 8.99613281 3.13671875 8.9921875 C0.62855042 8.87217945 -1.57991767 8.68225725 -4 8 C-6.0625 4.9375 -6.0625 4.9375 -7 2 C-10.5683336 2.2744872 -13.28600063 2.56784249 -16.375 4.4375 C-18.86073973 8.35732035 -18.82590183 12.43862788 -19 17 C-21.31987235 13.52019147 -21.06504759 11.95278555 -20.39453125 7.9296875 C-19.55552982 3.82605675 -19.55552982 3.82605675 -18 2 C-11.98717999 -1.11378179 -6.58965502 -1.90064316 0 0 Z " fill="#233081" transform="translate(119,101)"/>
<path d="M0 0 C1.7790973 2.66864595 2.77003287 4.84004711 3.875 7.8125 C5.99347234 13.15541187 7.870043 17.54775659 12.75 20.875 C18.12561933 22.73579131 22.14900657 22.82266375 27.375 20.5 C28.24125 20.005 29.1075 19.51 30 19 C30.66 19 31.32 19 32 19 C32 20.98 32 22.96 32 25 C15.73134769 26.73783545 15.73134769 26.73783545 10 23 C4.37843924 18.29357704 0.71044778 12.15278163 -1 5 C-0.625 2.125 -0.625 2.125 0 0 Z " fill="#7F6742" transform="translate(79,130)"/>
<path d="M0 0 C5.28 0 10.56 0 16 0 C16.66 1.65 17.32 3.3 18 5 C13.71 7.97 9.42 10.94 5 14 C4.34 12.68 3.68 11.36 3 10 C3.99 9.67 4.98 9.34 6 9 C5.67 7.68 5.34 6.36 5 5 C3.68 4.67 2.36 4.34 1 4 C0.67 2.68 0.34 1.36 0 0 Z " fill="#D2DDED" transform="translate(185,81)"/>
<path d="M0 0 C1.66611905 -0.042721 3.33382885 -0.04063832 5 0 C7.05922402 2.05922402 6.41427579 6.21708124 6.5625 9.0625 C6.60568359 9.82111328 6.64886719 10.57972656 6.69335938 11.36132812 C6.79973633 13.24065438 6.90039934 15.12030244 7 17 C5.68 16.67 4.36 16.34 3 16 C3 14.68 3 13.36 3 12 C1.35 12 -0.3 12 -2 12 C-2.33 12.99 -2.66 13.98 -3 15 C-4.32 15 -5.64 15 -7 15 C-5.63408831 11.45756548 -4.09068516 8.07372071 -2.375 4.6875 C-1.70597656 3.36298828 -1.70597656 3.36298828 -1.0234375 2.01171875 C-0.68570313 1.34785156 -0.34796875 0.68398438 0 0 Z " fill="#ECF0F7" transform="translate(125,19)"/>
<path d="M0 0 C1.04220703 0.63035156 1.04220703 0.63035156 2.10546875 1.2734375 C0.54098204 6.8878366 -1.05848312 12.14154088 -3.89453125 17.2734375 C-4.88453125 16.9434375 -5.87453125 16.6134375 -6.89453125 16.2734375 C-6.56453125 14.2934375 -6.23453125 12.3134375 -5.89453125 10.2734375 C-8.20453125 10.6034375 -10.51453125 10.9334375 -12.89453125 11.2734375 C-13.55453125 10.2834375 -14.21453125 9.2934375 -14.89453125 8.2734375 C-13.01443814 6.70819252 -11.11958269 5.1730975 -9.20703125 3.6484375 C-8.67658203 3.20242187 -8.14613281 2.75640625 -7.59960938 2.296875 C-3.54237011 -0.88917792 -3.54237011 -0.88917792 0 0 Z " fill="#DEE7F2" transform="translate(169.89453125,36.7265625)"/>
<path d="M0 0 C0.66 0 1.32 0 2 0 C1.125 3.875 1.125 3.875 0 5 C-0.16666667 8 -0.16666667 8 0 11 C1.06645115 12.29633621 1.06645115 12.29633621 3.5625 12.0625 C4.366875 12.041875 5.17125 12.02125 6 12 C6.33 11.01 6.66 10.02 7 9 C5.35 8.67 3.7 8.34 2 8 C2.99 6.68 3.98 5.36 5 4 C7.91517292 5.07401108 9.77810176 5.77810176 12 8 C11.81751855 10.73722173 10.99272038 12.00943654 9.3125 14.1875 C6.36794647 16.49539331 4.75179604 17.07503592 1 17 C-2.375 14.9375 -2.375 14.9375 -5 12 C-5.6875 9.0625 -5.6875 9.0625 -5 6 C-3.52605955 3.62981737 -2.00579171 2.00579171 0 0 Z " fill="#EFF2F8" transform="translate(44,46)"/>
<path d="M0 0 C2.64 4.62 5.28 9.24 8 14 C6.68 14.33 5.36 14.66 4 15 C3.67 14.01 3.34 13.02 3 12 C1.35 12 -0.3 12 -2 12 C-2 13.65 -2 15.3 -2 17 C-3.32 17 -4.64 17 -6 17 C-6.2012567 5.68490113 -6.2012567 5.68490113 -5 1 C-3 0 -3 0 0 0 Z " fill="#E0E8F3" transform="translate(92,20)"/>
<path d="M0 0 C2.27984591 1.82273395 3.37186108 3.4837853 5 6 C5 6.99 5 7.98 5 9 C4.01 9 3.02 9 2 9 C0.3125 6.5 0.3125 6.5 -1 4 C-3.31 4.33 -5.62 4.66 -8 5 C-8 6.65 -8 8.3 -8 10 C-7.01 10 -6.02 10 -5 10 C-4.67 9.01 -4.34 8.02 -4 7 C-3.34 7 -2.68 7 -2 7 C-1.34 8.98 -0.68 10.96 0 13 C-4.32 16 -4.32 16 -7.125 16 C-9.91478852 14.51211279 -10.72640448 12.86558993 -12 10 C-12.5 6.9375 -12.5 6.9375 -12 4 C-8.43335148 -0.10704981 -5.31608048 -0.94930009 0 0 Z " fill="#EEF2F8" transform="translate(192,63)"/>
<path d="M0 0 C2.01822917 0.06510417 4.03645833 0.13020833 6.0546875 0.1953125 C6.0546875 1.1853125 6.0546875 2.1753125 6.0546875 3.1953125 C4.0746875 3.1953125 2.0946875 3.1953125 0.0546875 3.1953125 C0.3846875 3.8553125 0.7146875 4.5153125 1.0546875 5.1953125 C1.8796875 5.4428125 2.7046875 5.6903125 3.5546875 5.9453125 C6.0546875 7.1953125 6.0546875 7.1953125 7.0546875 10.1328125 C7.0546875 13.1953125 7.0546875 13.1953125 6.0546875 15.0703125 C3.07174116 16.74821981 0.40498711 16.3849521 -2.9453125 16.1953125 C-3.2753125 15.5353125 -3.6053125 14.8753125 -3.9453125 14.1953125 C-3.2853125 13.5353125 -2.6253125 12.8753125 -1.9453125 12.1953125 C-0.6253125 12.1953125 0.6946875 12.1953125 2.0546875 12.1953125 C2.0546875 11.5353125 2.0546875 10.8753125 2.0546875 10.1953125 C1.2503125 9.7621875 0.4459375 9.3290625 -0.3828125 8.8828125 C-2.9453125 7.1953125 -2.9453125 7.1953125 -3.8828125 4.6328125 C-3.9034375 3.8284375 -3.9240625 3.0240625 -3.9453125 2.1953125 C-1.9453125 0.1953125 -1.9453125 0.1953125 0 0 Z " fill="#EAEFF6" transform="translate(109.9453125,17.8046875)"/>
<path d="M0 0 C0.928125 0.20625 1.85625 0.4125 2.8125 0.625 C3.5625 3.875 3.5625 3.875 3.8125 7.625 C2.1875 10.125 2.1875 10.125 -0.1875 11.625 C-3.57904295 11.46349795 -4.77046757 11.04203243 -7.1875 8.625 C-7 5.125 -7 5.125 -6.1875 1.625 C-3.1875 -0.375 -3.1875 -0.375 0 0 Z " fill="#E2E9F3" transform="translate(74.1875,186.375)"/>
<path d="M0 0 C1.18771723 3.42943519 0.80226223 5.37784675 -0.4375 8.75 C-0.86869141 9.94882813 -0.86869141 9.94882813 -1.30859375 11.171875 C-1.53675781 11.77515625 -1.76492187 12.3784375 -2 13 C-2.66 13 -3.32 13 -4 13 C-4.0825 13.5775 -4.165 14.155 -4.25 14.75 C-5.4388001 18.3164003 -7.43525231 20.18466584 -10.76171875 21.91796875 C-15.65798192 23.96689617 -19.72277694 24.28270838 -25 24 C-24.97679688 24.69867188 -24.95359375 25.39734375 -24.9296875 26.1171875 C-24.90261719 27.48230469 -24.90261719 27.48230469 -24.875 28.875 C-24.85179688 29.77992188 -24.82859375 30.68484375 -24.8046875 31.6171875 C-25 34 -25 34 -27 36 C-29.68839385 36.26991906 -32.29141936 36.08737357 -35 36 C-35.33 35.34 -35.66 34.68 -36 34 C-33.36 33.67 -30.72 33.34 -28 33 C-27.67 29.37 -27.34 25.74 -27 22 C-24 21 -24 21 -20.9375 21.25 C-15.46018404 20.90223391 -11.37789459 19.33165199 -7 16 C-3.57699391 11.21575196 -1.62791227 5.62369692 0 0 Z " fill="#EBEAEA" transform="translate(147,135)"/>
<path d="M0 0 C3.5 0.1875 3.5 0.1875 7 1 C7.66 1.99 8.32 2.98 9 4 C5.86650268 5.04449911 5.01031744 4.93423645 2 4 C2.515625 4.721875 3.03125 5.44375 3.5625 6.1875 C5 9 5 9 4.8125 11.6875 C4 14 4 14 2 16 C-0.9375 15.875 -0.9375 15.875 -4 15 C-5.875 12.9375 -5.875 12.9375 -7 11 C-3.37673261 9.7922442 -2.35853631 10.45688872 1 12 C0.2575 10.9171875 0.2575 10.9171875 -0.5 9.8125 C-2.09315671 6.82533117 -2.44864851 5.31999901 -2 2 C-1.34 1.34 -0.68 0.68 0 0 Z " fill="#EDF1F7" transform="translate(151,28)"/>
<path d="M0 0 C2.375 1.6875 2.375 1.6875 4 4 C3.83849795 7.39154295 3.41703243 8.58296757 1 11 C-2.13704316 11.333728 -4.16554166 11.52849028 -6.875 9.8125 C-8.40659584 7.34492892 -8.42822025 5.85480169 -8 3 C-5.85994067 -0.26640634 -3.76400062 -0.64263425 0 0 Z " fill="#E3E9F3" transform="translate(191,150)"/>
<path d="M0 0 C3 3 3 3 3.375 6.5625 C3.25125 7.696875 3.1275 8.83125 3 10 C-0.24153166 12.1610211 -1.23692901 12.64247553 -5 12 C-7.3125 9.6875 -7.3125 9.6875 -9 7 C-9 6.01 -9 5.02 -9 4 C-6.03 2.68 -3.06 1.36 0 0 Z " fill="#E4EBF4" transform="translate(32,141)"/>
<path d="M0 0 C0.99 0.33 1.98 0.66 3 1 C2.21625 1.886875 1.4325 2.77375 0.625 3.6875 C-1.1690514 5.8013823 -2.02496208 7.07322209 -2.9375 9.75 C-3.288125 10.4925 -3.63875 11.235 -4 12 C-5.4540625 12.3403125 -5.4540625 12.3403125 -6.9375 12.6875 C-10.16451946 13.66266255 -10.16451946 13.66266255 -11.05859375 16.33984375 C-11.80354538 18.88123378 -12.45498668 21.40879634 -13 24 C-13.66 24 -14.32 24 -15 24 C-15.33 26.31 -15.66 28.62 -16 31 C-16.99 30.67 -17.98 30.34 -19 30 C-10.43555556 5.21777778 -10.43555556 5.21777778 0 0 Z " fill="#FDEB66" transform="translate(153,95)"/>
<path d="M0 0 C0.66 0.66 1.32 1.32 2 2 C-1.338815 3.10265715 -3.53764592 2.84472207 -6.9375 2.0625 C-17.41747977 0.04126216 -27.09427767 0.88898363 -37.43994141 3.1081543 C-39.27878149 3.48493079 -41.13942183 3.75192291 -43 4 C-43.66 3.34 -44.32 2.68 -45 2 C-30.26091105 -2.80575826 -15.19720016 -3.93911428 0 0 Z " fill="#CB9D31" transform="translate(132,41)"/>
<path d="M0 0 C3.89436428 1.5627465 6.98347663 3.42081384 9.27734375 6.984375 C10 9 10 9 9 12 C8.484375 11.236875 7.96875 10.47375 7.4375 9.6875 C4.43422317 6.37619478 2.28766164 5.26521163 -2 4 C-7.5444861 3.93130725 -12.75521364 5.32613201 -18 7 C-12.44030509 0.12353525 -9.0551579 -1.09685627 0 0 Z " fill="#18175B" transform="translate(117,97)"/>
<path d="M0 0 C2.09476866 3.14215299 2.68496857 5.28314711 3.5 8.9375 C3.75910156 10.09765625 4.01820312 11.2578125 4.28515625 12.453125 C4.93794309 15.69208922 5.45909773 18.91912342 5.9375 22.1875 C6.95504229 28.58953692 8.67337981 34.92015745 12.62890625 40.15625 C14 42 14 42 14 44 C13.01 44 12.02 44 11 44 C5.90864136 36.17925323 3.91267009 28.24664787 2.125 19.1875 C1.91012939 18.10218994 1.69525879 17.01687988 1.47387695 15.89868164 C0.47053097 10.52056481 -0.26534318 5.47075207 0 0 Z " fill="#EBE7DD" transform="translate(72,107)"/>
<path d="M0 0 C5.74137931 4.72068966 5.74137931 4.72068966 7.5625 6.6875 C9.49062791 8.44796461 11.55845113 9.14215851 14 10 C13.67 10.99 13.34 11.98 13 13 C7.39 13 1.78 13 -4 13 C-3.67 11.68 -3.34 10.36 -3 9 C-0.69 9 1.62 9 4 9 C4 8.34 4 7.68 4 7 C3.360625 6.731875 2.72125 6.46375 2.0625 6.1875 C0 5 0 5 -1 2 C-0.67 1.34 -0.34 0.68 0 0 Z " fill="#EAEFF6" transform="translate(24,75)"/>
<path d="M0 0 C1.43793392 0.31049726 2.8753318 0.6234776 4.3125 0.9375 C5.11300781 1.11152344 5.91351563 1.28554688 6.73828125 1.46484375 C9 2 9 2 12 3 C12 3.99 12 4.98 12 6 C10.35 6 8.7 6 7 6 C5.68 9.63 4.36 13.26 3 17 C2.01 17 1.02 17 0 17 C0.51958285 12.62065881 1.05675742 8.31196609 2 4 C1.34 3.67 0.68 3.34 0 3 C0 2.01 0 1.02 0 0 Z " fill="#E9EEF6" transform="translate(136,21)"/>
<path d="M0 0 C4.12751449 0.60698743 7.3321148 2.03810791 11 4 C10.67 4.99 10.34 5.98 10 7 C7.9375 7.6875 7.9375 7.6875 6 8 C6.99 8.66 7.98 9.32 9 10 C8.67 10.99 8.34 11.98 8 13 C3.05 11.02 3.05 11.02 -2 9 C-1.67 7.68 -1.34 6.36 -1 5 C0.32 4.67 1.64 4.34 3 4 C2.01 3.67 1.02 3.34 0 3 C0 2.01 0 1.02 0 0 Z " fill="#E4EAF3" transform="translate(190,138)"/>
<path d="M0 0 C3.62626109 2.71309782 6.82320748 5.77846392 10 9 C9.67 9.66 9.34 10.32 9 11 C7.865625 10.360625 6.73125 9.72125 5.5625 9.0625 C1.09816188 6.80237891 -3.04556318 6.22937207 -8 6 C-8.33 4.35 -8.66 2.7 -9 1 C-5.85216128 -0.57391936 -3.34522455 -0.98353245 0 0 Z " fill="#F4E164" transform="translate(94,129)"/>
<path d="M0 0 C0 0.99 0 1.98 0 3 C-2.76497402 5.0108902 -5.21900268 6.06648295 -8.5 7.0625 C-12.85399099 8.85531982 -14.15889246 12.28368308 -16 16.4140625 C-17.22711871 19.58731478 -18.20884207 22.69152137 -19 26 C-19.66 26 -20.32 26 -21 26 C-20.62319757 17.86106752 -18.88097974 11.40397975 -12.8125 5.6875 C-8.95085124 2.60657588 -4.7365522 1.22441486 0 0 Z " fill="#453219" transform="translate(168,90)"/>
<path d="M0 0 C7.56440328 1.6954697 13.45635661 3.26287359 18 10 C21.01947835 14.92063139 21.63630793 19.35650239 22 25 C18.48067452 22.65378301 18.23206627 21.5349046 16.9375 17.625 C15.0373686 11.2269408 15.0373686 11.2269408 10.8125 6.375 C7.92304091 4.85034169 7.92304091 4.85034169 4.25 4 C3.1775 3.67 2.105 3.34 1 3 C0.67 2.01 0.34 1.02 0 0 Z " fill="#A17B2D" transform="translate(55,91)"/>
<path d="M0 0 C1.32 0.33 2.64 0.66 4 1 C4.33 2.65 4.66 4.3 5 6 C5.66 4.68 6.32 3.36 7 2 C7.66 2 8.32 2 9 2 C8.44894091 5.9492568 7.61064629 9.34920174 6 13 C5.01 13 4.02 13 3 13 C2.34 11.35 1.68 9.7 1 8 C0.67 8.99 0.34 9.98 0 11 C-0.99 11 -1.98 11 -3 11 C-2.69078116 9.54096742 -2.37751201 8.08279278 -2.0625 6.625 C-1.88847656 5.81289062 -1.71445313 5.00078125 -1.53515625 4.1640625 C-1 2 -1 2 0 0 Z " fill="#E6ECF4" transform="translate(81,190)"/>
<path d="M0 0 C0.68449219 -0.01804687 1.36898437 -0.03609375 2.07421875 -0.0546875 C7.13916407 0.00397982 10.04476568 1.32944716 13.9375 4.5 C15.3125 6.75 15.3125 6.75 15.9375 8.5 C14.9475 8.83 13.9575 9.16 12.9375 9.5 C12.15375 8.695625 11.37 7.89125 10.5625 7.0625 C6.35376822 2.95397612 3.46009237 3.23579244 -2.23046875 3.265625 C-6.07317257 3.58364187 -8.6340114 4.7857557 -12.0625 6.5 C-13.0525 6.5 -14.0425 6.5 -15.0625 6.5 C-15.0625 5.84 -15.0625 5.18 -15.0625 4.5 C-10.2816579 0.67532632 -6.03386186 0.06606418 0 0 Z " fill="#D5B53D" transform="translate(153.0625,81.5)"/>
<path d="M0 0 C0.66 0 1.32 0 2 0 C2.66 3.96 3.32 7.92 4 12 C0.16263678 11.04065919 -0.59660228 10.76390737 -3 8 C-3 9.65 -3 11.3 -3 13 C-3.99 12.67 -4.98 12.34 -6 12 C-6.33 8.37 -6.66 4.74 -7 1 C-3.16263678 1.95934081 -2.40339772 2.23609263 0 5 C0 3.35 0 1.7 0 0 Z " fill="#DEE6F1" transform="translate(130,193)"/>
<path d="M0 0 C1.98 0.66 3.96 1.32 6 2 C5.67 2.66 5.34 3.32 5 4 C4.34 4 3.68 4 3 4 C3.01160156 4.78246094 3.02320312 5.56492188 3.03515625 6.37109375 C3.04417969 7.38300781 3.05320312 8.39492187 3.0625 9.4375 C3.07410156 10.44683594 3.08570312 11.45617187 3.09765625 12.49609375 C3 15 3 15 2 16 C-5.45864662 16.36090226 -5.45864662 16.36090226 -9 14 C-10.53191489 6.08510638 -10.53191489 6.08510638 -9 2 C-8.01 2 -7.02 2 -6 2 C-6 5.66666667 -6 9.33333333 -6 13 C-3.69 13.66 -1.38 14.32 1 15 C0.67 10.05 0.34 5.1 0 0 Z " fill="#B7B2B2" transform="translate(117,153)"/>
<path d="M0 0 C2.5 0.25 2.5 0.25 4.5 2.25 C4.75 5.25 4.75 5.25 4.5 8.25 C2.5 10.25 2.5 10.25 0 10.5 C-2.5 10.25 -2.5 10.25 -4.5 8.25 C-4.75 5.25 -4.75 5.25 -4.5 2.25 C-2.5 0.25 -2.5 0.25 0 0 Z " fill="#D09D26" transform="translate(22.5,105.75)"/>
<path d="M0 0 C0.042721 1.66611905 0.04063832 3.33382885 0 5 C-2.24079324 7.24079324 -6.98613589 6.96266769 -10.01953125 7.40234375 C-12.71202687 7.9422544 -14.64147486 8.6351392 -17 10 C-15.43989422 5.78771439 -12.5154607 3.65453155 -9 1 C-5.8035914 -0.06546953 -3.34252724 -0.07427838 0 0 Z " fill="#FCE757" transform="translate(139,129)"/>
<path d="M0 0 C0.89267578 0.00322266 1.78535156 0.00644531 2.70507812 0.00976562 C4.09823242 0.02233398 4.09823242 0.02233398 5.51953125 0.03515625 C6.45990234 0.03966797 7.40027344 0.04417969 8.36914062 0.04882812 C10.69016837 0.06060999 13.01106769 0.07706067 15.33203125 0.09765625 C15.33203125 0.42765625 15.33203125 0.75765625 15.33203125 1.09765625 C13.68203125 1.42765625 12.03203125 1.75765625 10.33203125 2.09765625 C12.64203125 2.42765625 14.95203125 2.75765625 17.33203125 3.09765625 C17.33203125 3.42765625 17.33203125 3.75765625 17.33203125 4.09765625 C13.99871686 4.12703063 10.66543642 4.14457959 7.33203125 4.16015625 C6.39746094 4.16853516 5.46289062 4.17691406 4.5 4.18554688 C-0.99071276 4.20474517 -6.23663356 3.91107555 -11.66796875 3.09765625 C-7.67147261 1.03050307 -4.51517689 -0.02875909 0 0 Z " fill="#CDA448" transform="translate(105.66796875,214.90234375)"/>
<path d="M0 0 C3.125 0.375 3.125 0.375 6 1 C7.32841008 6.43440487 7.32841008 6.43440487 5.875 8.9375 C4 10 4 10 1.375 9.75 C-1 9 -1 9 -2 8 C-2.1875 5.0625 -2.1875 5.0625 -2 2 C-1.34 1.34 -0.68 0.68 0 0 Z " fill="#D49F25" transform="translate(199,106)"/>
<path d="M0 0 C1.81720146 2.6569191 2.02350757 3.83027106 1.57421875 7.07421875 C1.28160156 8.26660156 0.98898438 9.45898438 0.6875 10.6875 C-1.23890145 19.08930666 -1.6949837 27.40695445 -2 36 C-4.41477895 32.26192218 -4.38273874 28.49749545 -4.375 24.1875 C-4.37628906 23.4457251 -4.37757812 22.7039502 -4.37890625 21.93969727 C-4.23480689 14.229563 -2.38261751 7.3074028 0 0 Z " fill="#C99B31" transform="translate(43,87)"/>
<path d="M0 0 C0.33 0.66 0.66 1.32 1 2 C0.31863508 3.9215686 -0.4477142 5.81319439 -1.25 7.6875 C-4.18829414 15.00458902 -5.67877854 22.23379581 -7 30 C-7.99 29.67 -8.98 29.34 -10 29 C-8.38923135 19.95773056 -6.49476568 11.53290502 -3 3 C-2.34 3 -1.68 3 -1 3 C-0.67 2.01 -0.34 1.02 0 0 Z " fill="#906E27" transform="translate(105,65)"/>
<path d="M0 0 C6.41785105 0.36327459 6.41785105 0.36327459 9 3.1875 C10.24321031 6.68402901 10.12553449 8.47332525 9 12 C7.0625 14.375 7.0625 14.375 5 16 C4.34 16 3.68 16 3 16 C3.33 15.278125 3.66 14.55625 4 13.8125 C5.02083172 10.94141078 5.32596895 9.01521279 5 6 C2.64046906 3.64046906 1.22104383 3.50858587 -2 3 C-1.34 2.01 -0.68 1.02 0 0 Z " fill="#F2F5F9" transform="translate(73,26)"/>
<path d="M0 0 C4.62 0 9.24 0 14 0 C12.68 2.64 11.36 5.28 10 8 C9.67 7.34 9.34 6.68 9 6 C6.69 6.33 4.38 6.66 2 7 C0.5393715 4.35261084 0 3.10551666 0 0 Z " fill="#FEED6C" transform="translate(106,136)"/>
<path d="M0 0 C0 0.33 0 0.66 0 1 C-0.58007812 1.15855469 -1.16015625 1.31710938 -1.7578125 1.48046875 C-9.47327431 3.78492186 -14.02524568 6.77317396 -18 14 C-19.31037934 15.68477344 -20.63823078 17.35648543 -22 19 C-21.65117239 12.19786163 -17.95267783 7.04236197 -13.328125 2.27734375 C-8.74753886 -1.49428566 -5.67843911 -1.29508261 0 0 Z " fill="#BC9F39" transform="translate(138,128)"/>
<path d="M0 0 C3.45255621 1.42864395 5.00958344 2.8464181 7 6 C8.1516521 8.80652204 9.07929706 11.67316134 10 14.5625 C10.26055176 15.36373291 10.52110352 16.16496582 10.78955078 16.99047852 C16 33.16437764 16 33.16437764 16 38 C15.01 38.495 15.01 38.495 14 39 C13.84144531 38.23558594 13.68289062 37.47117188 13.51953125 36.68359375 C10.86534106 24.49778134 7.62613342 12.67826885 1 2 C0.67 1.34 0.34 0.68 0 0 Z " fill="#C8C3C3" transform="translate(115,57)"/>
<path d="M0 0 C1.32 0 2.64 0 4 0 C4.33 3.96 4.66 7.92 5 12 C4.01 12 3.02 12 2 12 C2 10.68 2 9.36 2 8 C-1.11785113 8.64644661 -1.11785113 8.64644661 -2 11 C-2.99 11 -3.98 11 -5 11 C-3.78508612 6.9814387 -2.56778868 3.35787751 0 0 Z " fill="#E9EEF6" transform="translate(95,194)"/>
<path d="M0 0 C0.99 0.66 1.98 1.32 3 2 C1.7874262 5.72433382 0.49140021 9.37802806 -1 13 C-1.99 12.67 -2.98 12.34 -4 12 C-4 10.68 -4 9.36 -4 8 C-5.65 7.67 -7.3 7.34 -9 7 C-9 6.34 -9 5.68 -9 5 C-6.03 3.35 -3.06 1.7 0 0 Z " fill="#E8EDF5" transform="translate(52,171)"/>
<path d="M0 0 C6.21343868 1.48398633 11.02167421 2.65412472 15 8 C16.3125 11.3125 16.3125 11.3125 17 14 C16.01 13.67 15.02 13.34 14 13 C14 12.01 14 11.02 14 10 C11.03 9.01 8.06 8.02 5 7 C5 6.34 5 5.68 5 5 C3.35 4.67 1.7 4.34 0 4 C0 2.68 0 1.36 0 0 Z " fill="#E8E7E7" transform="translate(55,93)"/>
<path d="M0 0 C1.7790973 2.66864595 2.77003287 4.84004711 3.875 7.8125 C6.54150219 15.01802068 6.54150219 15.01802068 12 20 C11.67 21.32 11.34 22.64 11 24 C5.00602253 18.17252191 0.77112364 13.30026588 -1 5 C-0.6875 1.9375 -0.6875 1.9375 0 0 Z " fill="#987325" transform="translate(79,130)"/>
<path d="M0 0 C3.34163899 1.38274717 5.25766748 2.79044009 7 6 C6.75925978 9.37036311 6.41201979 10.58798021 4 13 C0.40234821 12.90532495 -0.77763818 12.2283716 -3.3125 9.625 C-5 7 -5 7 -5 4 C-4.34 4 -3.68 4 -3 4 C-2.360625 4.804375 -1.72125 5.60875 -1.0625 6.4375 C0.81035932 9.23720732 0.81035932 9.23720732 4 10 C2.7508258 6.54074837 1.32472205 3.85306797 -1 1 C-0.67 0.67 -0.34 0.34 0 0 Z " fill="#E4EAF3" transform="translate(170,171)"/>
<path d="M0 0 C0 2.97 0 5.94 0 9 C-1.65 9 -3.3 9 -5 9 C-5.33 9.99 -5.66 10.98 -6 12 C-7.32 12 -8.64 12 -10 12 C-5.41176471 0 -5.41176471 0 0 0 Z " fill="#CAD9EB" transform="translate(128,22)"/>
<path d="M0 0 C-1.0975223 2.99324263 -1.67682892 3.84610901 -4.625 5.25 C-5.40875 5.4975 -6.1925 5.745 -7 6 C-6.67 6.66 -6.34 7.32 -6 8 C-2.65626525 7.44271087 0.03312999 6.64826111 3 5 C3.33 5.99 3.66 6.98 4 8 C-2.35773585 12.03471698 -2.35773585 12.03471698 -5.3125 11.875 C-7 11 -7 11 -9 9 C-8.90532495 5.40234821 -8.2283716 4.22236182 -5.625 1.6875 C-3 0 -3 0 0 0 Z " fill="#EAEFF6" transform="translate(39,152)"/>
<path d="M0 0 C0.33 2.31 0.66 4.62 1 7 C0.34 7 -0.32 7 -1 7 C-1.66 6.34 -2.32 5.68 -3 5 C-3 5.99 -3 6.98 -3 8 C-3.99 7.67 -4.98 7.34 -6 7 C-6 6.34 -6 5.68 -6 5 C-6.66 5 -7.32 5 -8 5 C-7.67 6.65 -7.34 8.3 -7 10 C-7.99 10 -8.98 10 -10 10 C-10.33 7.69 -10.66 5.38 -11 3 C-9.54293274 2.49632243 -8.08429904 1.99717444 -6.625 1.5 C-5.81289063 1.2215625 -5.00078125 0.943125 -4.1640625 0.65625 C-2 0 -2 0 0 0 Z " fill="#DDE4F0" transform="translate(31,132)"/>
<path d="M0 0 C5.41139241 -0.36075949 5.41139241 -0.36075949 7.9375 1.1875 C9 3 9 3 8.6875 5.6875 C8.460625 6.450625 8.23375 7.21375 8 8 C5.69 7.67 3.38 7.34 1 7 C-0.0625 4.625 -0.0625 4.625 -1 2 C-0.67 1.34 -0.34 0.68 0 0 Z " fill="#0D61B0" transform="translate(32,66)"/>
<path d="M0 0 C2.4375 0.25 2.4375 0.25 5 1 C7.1519437 4.22791555 7.20086443 5.28400809 7 9 C4.6875 9.6875 4.6875 9.6875 2 10 C0.1875 8.9375 0.1875 8.9375 -1 7 C-1.25 3.875 -1.25 3.875 -1 1 C-0.67 0.67 -0.34 0.34 0 0 Z " fill="#1163B0" transform="translate(57,38)"/>
<path d="M0 0 C7.73773817 0.73692744 12.02322181 4.67095955 16.80078125 10.4140625 C19.2399208 13.63976496 19.0864576 16.02295018 19 20 C18.34 20 17.68 20 17 20 C15.05045872 15.32110092 15.05045872 15.32110092 14.69921875 13.0859375 C13.72258633 10.17240838 12.05223667 8.87992796 9.75 6.875 C8.98171875 6.19179687 8.2134375 5.50859375 7.421875 4.8046875 C5.00828078 3.00617052 2.83413846 1.97486323 0 1 C0 0.67 0 0.34 0 0 Z " fill="#99762B" transform="translate(89,127)"/>
<path d="M0 0 C0.92425781 -0.00257813 1.84851563 -0.00515625 2.80078125 -0.0078125 C3.76371094 -0.00007812 4.72664063 0.00765625 5.71875 0.015625 C7.16314453 0.00402344 7.16314453 0.00402344 8.63671875 -0.0078125 C9.56097656 -0.00523437 10.48523438 -0.00265625 11.4375 0 C12.28248047 0.00225586 13.12746094 0.00451172 13.99804688 0.00683594 C16.21875 0.265625 16.21875 0.265625 19.21875 2.265625 C10.35940276 3.91387565 1.07809724 3.91387565 -7.78125 2.265625 C-4.57310112 0.12685908 -3.6935427 0.00986072 0 0 Z " fill="#DEAA30" transform="translate(106.78125,5.734375)"/>
<path d="M0 0 C1.2065625 0.0309375 1.2065625 0.0309375 2.4375 0.0625 C2.4375 0.7225 2.4375 1.3825 2.4375 2.0625 C1.1175 2.0625 -0.2025 2.0625 -1.5625 2.0625 C-1.5625 2.7225 -1.5625 3.3825 -1.5625 4.0625 C-0.77875 4.02125 0.005 3.98 0.8125 3.9375 C3.4375 4.0625 3.4375 4.0625 5.4375 6.0625 C5.25 8.0625 5.25 8.0625 4.4375 10.0625 C1.4375 12.0625 1.4375 12.0625 -1.5625 12.0625 C-1.5625 11.0725 -1.5625 10.0825 -1.5625 9.0625 C-0.2425 9.0625 1.0775 9.0625 2.4375 9.0625 C2.4375 8.4025 2.4375 7.7425 2.4375 7.0625 C1.633125 7.083125 0.82875 7.10375 0 7.125 C-2.5625 7.0625 -2.5625 7.0625 -3.5625 6.0625 C-3.6875 3.5625 -3.6875 3.5625 -3.5625 1.0625 C-2.5625 0.0625 -2.5625 0.0625 0 0 Z " fill="#D4DEED" transform="translate(138.5625,190.9375)"/>
<path d="M0 0 C1.11375 0.7115625 1.11375 0.7115625 2.25 1.4375 C8.39182735 4.92717463 14.16631171 4.36673766 21 3 C21 6.63 21 10.26 21 14 C20.34 14 19.68 14 19 14 C19 11.69 19 9.38 19 7 C18.27554688 7.03480469 17.55109375 7.06960937 16.8046875 7.10546875 C6.71882304 7.38787295 6.71882304 7.38787295 2 4 C0.625 1.8125 0.625 1.8125 0 0 Z " fill="#D6D2D1" transform="translate(87,151)"/>
<path d="M0 0 C3.08336739 3.08336739 2.80112413 6.83289277 3 11 C2.97396329 14.6965458 2.78586298 18.37315977 2.5625 22.0625 C2.51029297 23.02349609 2.45808594 23.98449219 2.40429688 24.97460938 C2.27611412 27.31685793 2.14123891 29.65850875 2 32 C1.67 32 1.34 32 1 32 C0.63460921 27.60502407 0.28464722 23.20895156 -0.0625 18.8125 C-0.16626953 17.56662109 -0.27003906 16.32074219 -0.37695312 15.03710938 C-0.47041016 13.83505859 -0.56386719 12.63300781 -0.66015625 11.39453125 C-0.74918213 10.28956299 -0.83820801 9.18459473 -0.92993164 8.04614258 C-0.99610659 5.16926145 -0.69055688 2.7826046 0 0 Z " fill="#C19B43" transform="translate(8,89)"/>
<path d="M0 0 C3.63627836 3.79256539 4.1893404 8.27862147 5.1875 13.25 C5.36474609 14.09046875 5.54199219 14.9309375 5.72460938 15.796875 C6.15889776 17.86267921 6.58068676 19.9311042 7 22 C2.19190291 17.57933222 0.27887105 12.92792842 -0.18359375 6.4140625 C-0.1869674 4.27516865 -0.10173693 2.13647557 0 0 Z " fill="#FAE865" transform="translate(119,70)"/>
<path d="M0 0 C4.75 0.75 4.75 0.75 7 3 C7.25 5.5 7.25 5.5 7 8 C6.34 8.66 5.68 9.32 5 10 C4.01 10 3.02 10 2 10 C-1.07692308 4.58461538 -1.07692308 4.58461538 -0.6875 1.625 C-0.460625 1.08875 -0.23375 0.5525 0 0 Z " fill="#1063B0" transform="translate(72,29)"/>
<path d="M0 0 C1.80307617 0.14018555 1.80307617 0.14018555 3.64257812 0.28320312 C4.88845703 0.38697266 6.13433594 0.49074219 7.41796875 0.59765625 C8.68318359 0.69755859 9.94839844 0.79746094 11.25195312 0.90039062 C14.37033621 1.14750777 17.48806853 1.40098092 20.60546875 1.66015625 C20.60546875 1.99015625 20.60546875 2.32015625 20.60546875 2.66015625 C16.21036749 2.88646349 11.81446935 3.08806402 7.41796875 3.28515625 C6.17208984 3.34960938 4.92621094 3.4140625 3.64257812 3.48046875 C2.44052734 3.53203125 1.23847656 3.58359375 0 3.63671875 C-1.10496826 3.68908691 -2.20993652 3.74145508 -3.34838867 3.79541016 C-6.47936296 3.65638958 -8.58397284 3.00025977 -11.39453125 1.66015625 C-11.39453125 1.33015625 -11.39453125 1.00015625 -11.39453125 0.66015625 C-7.4392861 -0.32141394 -4.05325012 -0.32656518 0 0 Z " fill="#C19B44" transform="translate(100.39453125,7.33984375)"/>
<path d="M0 0 C0.66 0 1.32 0 2 0 C1.67 1.65 1.34 3.3 1 5 C1.556875 4.319375 2.11375 3.63875 2.6875 2.9375 C3.450625 2.298125 4.21375 1.65875 5 1 C7.75 1.25 7.75 1.25 10 2 C10.625 3.8125 10.625 3.8125 11 6 C10.01 7.485 10.01 7.485 9 9 C8.34 9 7.68 9 7 9 C7.33 7.35 7.66 5.7 8 4 C6.35 5.32 4.7 6.64 3 8 C1.68 7.34 0.36 6.68 -1 6 C-1.042721 4.33388095 -1.04063832 2.66617115 -1 1 C-0.67 0.67 -0.34 0.34 0 0 Z " fill="#E6ECF4" transform="translate(193,129)"/>
<path d="M0 0 C0.33 1.32 0.66 2.64 1 4 C-0.93625098 4.98163422 -2.87404539 5.96022454 -4.8125 6.9375 C-6.43091797 7.75541016 -6.43091797 7.75541016 -8.08203125 8.58984375 C-11 10 -11 10 -14 11 C-15.21869929 13.50447516 -15.21869929 13.50447516 -16 16 C-16.33 15.34 -16.66 14.68 -17 14 C-15.51984713 10.06993892 -13.38745746 6.83441498 -9.765625 4.65625 C-8.22350804 3.99102308 -6.66351385 3.365174 -5.0859375 2.7890625 C-2.74721602 1.99356838 -2.74721602 1.99356838 0 0 Z " fill="#AEA8A9" transform="translate(168,92)"/>
<path d="M0 0 C0.66 0 1.32 0 2 0 C1.7168444 2.08450717 1.42314331 4.16758367 1.125 6.25 C0.96257812 7.41015625 0.80015625 8.5703125 0.6328125 9.765625 C0 13 0 13 -2 17 C-4.64 14.03 -7.28 11.06 -10 8 C-6.79937313 6.39968656 -4.27728194 7.96826309 -1 9 C-0.67 6.03 -0.34 3.06 0 0 Z " fill="#E7E5E3" transform="translate(96,79)"/>
<path d="M0 0 C2.875 0.875 2.875 0.875 4.875 2.875 C4.875 3.865 4.875 4.855 4.875 5.875 C4.215 5.875 3.555 5.875 2.875 5.875 C2.545 5.215 2.215 4.555 1.875 3.875 C0.225 4.205 -1.425 4.535 -3.125 4.875 C-2.795 7.185 -2.465 9.495 -2.125 11.875 C-4.0625 11.25 -4.0625 11.25 -6.125 9.875 C-7.125 7 -7.125 7 -7.125 3.875 C-4.97319314 0.5181813 -4.02114797 -0.16084592 0 0 Z " fill="#DCE4F0" transform="translate(44.125,163.125)"/>
<path d="M0 0 C2.4375 0.875 2.4375 0.875 3.75 2.9375 C4.0903125 3.8965625 4.0903125 3.8965625 4.4375 4.875 C3.4475 5.865 2.4575 6.855 1.4375 7.875 C1.1075 6.555 0.7775 5.235 0.4375 3.875 C-0.5525 4.37 -0.5525 4.37 -1.5625 4.875 C-1.5625 5.865 -1.5625 6.855 -1.5625 7.875 C-2.5525 8.205 -3.5425 8.535 -4.5625 8.875 C-5.2225 8.215 -5.8825 7.555 -6.5625 6.875 C-6.375 4.375 -6.375 4.375 -5.5625 1.875 C-2.5625 -0.125 -2.5625 -0.125 0 0 Z " fill="#1C68B3" transform="translate(189.5625,66.125)"/>
<path d="M0 0 C3.82612703 1.50312133 5.70091967 3.62801551 8 7 C9.25 10.3125 9.25 10.3125 10 13 C5.79373966 11.49776416 4.26099979 8.71449966 2 5 C-0.49361571 6.20381448 -2.68143083 7.45428722 -5 9 C-4.1875 6.5625 -4.1875 6.5625 -3 4 C-2.01 3.67 -1.02 3.34 0 3 C0 2.01 0 1.02 0 0 Z " fill="#7C5C25" transform="translate(111,55)"/>
<path d="M0 0 C0.33 0.66 0.66 1.32 1 2 C-1.97 1.505 -1.97 1.505 -5 1 C-5.33 1.66 -5.66 2.32 -6 3 C-6.66 2.67 -7.32 2.34 -8 2 C-11.29774094 2.21507006 -13.49498686 2.68607291 -16.3125 4.4375 C-18.88389109 8.34220498 -18.82483833 12.41076415 -19 17 C-21.31987235 13.52019147 -21.06504759 11.95278555 -20.39453125 7.9296875 C-19.55552982 3.82605675 -19.55552982 3.82605675 -18 2 C-11.97500297 -1.12008775 -6.62994242 -1.71887396 0 0 Z " fill="#212977" transform="translate(119,101)"/>
<path d="M0 0 C0.33 0 0.66 0 1 0 C1.19477739 1.62414378 1.38059458 3.24936423 1.5625 4.875 C1.66691406 5.77992187 1.77132812 6.68484375 1.87890625 7.6171875 C2 10 2 10 1 12 C0.84876169 13.5195764 0.75118307 15.04472502 0.68359375 16.5703125 C0.64169922 17.46621094 0.59980469 18.36210938 0.55664062 19.28515625 C0.49766602 20.69087891 0.49766602 20.69087891 0.4375 22.125 C0.39431641 23.06988281 0.35113281 24.01476562 0.30664062 24.98828125 C0.20040928 27.32537092 0.09836824 29.6625683 0 32 C-0.33 32 -0.66 32 -1 32 C-1.22630724 27.60489874 -1.42790777 23.2090006 -1.625 18.8125 C-1.68945312 17.56662109 -1.75390625 16.32074219 -1.8203125 15.03710938 C-1.89765625 13.2340332 -1.89765625 13.2340332 -1.9765625 11.39453125 C-2.02893066 10.28956299 -2.08129883 9.18459473 -2.13525391 8.04614258 C-1.99623333 4.91516829 -1.34010352 2.81055841 0 0 Z " fill="#BF9B47" transform="translate(216,89)"/>
<path d="M0 0 C0.33 0 0.66 0 1 0 C2.43885575 8.27342057 2.78471059 15.99395704 0 24 C-0.33 24 -0.66 24 -1 24 C-1.02901394 20.5625177 -1.04680335 17.12506688 -1.0625 13.6875 C-1.07087891 12.71103516 -1.07925781 11.73457031 -1.08789062 10.72851562 C-1.09111328 9.79072266 -1.09433594 8.85292969 -1.09765625 7.88671875 C-1.10551147 6.59060669 -1.10551147 6.59060669 -1.11352539 5.26831055 C-1 3 -1 3 0 0 Z " fill="#DEAC39" transform="translate(7,99)"/>
<path d="M0 0 C0.66 0.33 1.32 0.66 2 1 C-1.78374755 4.98002264 -5.24529984 8.20311755 -10 11 C-10.33 11.99 -10.66 12.98 -11 14 C-11.99 14.33 -12.98 14.66 -14 15 C-12.06033052 9.00465797 -8.64304282 4.78303629 -3.3125 1.5625 C-2.219375 1.046875 -1.12625 0.53125 0 0 Z " fill="#F5E678" transform="translate(145,85)"/>
<path d="M0 0 C-1 1 -1 1 -4.1328125 1.1328125 C-5.45023438 1.13023437 -6.76765625 1.12765625 -8.125 1.125 C-9.42695312 1.12757813 -10.72890625 1.13015625 -12.0703125 1.1328125 C-15.82322441 1.00597452 -19.30323122 0.6049258 -23 0 C-23 -0.33 -23 -0.66 -23 -1 C-4.14035088 -2.76023392 -4.14035088 -2.76023392 0 0 Z " fill="#DCA41E" transform="translate(132,217)"/>
<path d="M0 0 C2 2 2 2 2 6 C2.99 7.485 2.99 7.485 4 9 C4 9.99 4 10.98 4 12 C0.83884224 10.63016497 0.0072908 10.0109362 -2 7 C-4.05925139 6.27617533 -4.05925139 6.27617533 -6 6 C-4.75453595 2.26360784 -3.36595047 1.81243487 0 0 Z " fill="#E4EAF3" transform="translate(162,178)"/>
<path d="M0 0 C0.33 0.66 0.66 1.32 1 2 C1.66 2 2.32 2 3 2 C2.88529863 3.75070517 2.75780972 5.50057536 2.625 7.25 C2.55539063 8.22453125 2.48578125 9.1990625 2.4140625 10.203125 C2.01534751 12.89633189 1.36492937 14.66963279 0 17 C-0.66 16.67 -1.32 16.34 -2 16 C-1.34 10.72 -0.68 5.44 0 0 Z " fill="#927434" transform="translate(146,114)"/>
<path d="M0 0 C2.16926659 3.25389988 2.24080049 4.13395957 2.1953125 7.88671875 C2.18886719 8.82451172 2.18242187 9.76230469 2.17578125 10.72851562 C2.15902344 11.70498047 2.14226562 12.68144531 2.125 13.6875 C2.11597656 14.67556641 2.10695312 15.66363281 2.09765625 16.68164062 C2.0740843 19.12133765 2.04118022 21.56054697 2 24 C1.67 24 1.34 24 1 24 C-2.11111111 4.22222222 -2.11111111 4.22222222 0 0 Z " fill="#DDAD3D" transform="translate(217,99)"/>
<path d="M0 0 C0.66 0.66 1.32 1.32 2 2 C1.34 2.66 0.68 3.32 0 4 C0.7425 5.423125 0.7425 5.423125 1.5 6.875 C3 10 3 10 3 12 C2.01 12 1.02 12 0 12 C-0.4125 11.030625 -0.825 10.06125 -1.25 9.0625 C-2.64899168 5.87739901 -2.64899168 5.87739901 -5.1875 5.125 C-5.785625 5.08375 -6.38375 5.0425 -7 5 C-7 4.34 -7 3.68 -7 3 C-4.69 2.01 -2.38 1.02 0 0 Z " fill="#E6ECF4" transform="translate(149,186)"/>
<path d="M0 0 C2 2 2 2 2 5 C4.43750025 7.68767578 4.43750025 7.68767578 7 10 C2.64248779 10 1.56558499 9.19420615 -2 7 C-2.99 7 -3.98 7 -5 7 C-3.47793991 4.37098712 -2.15634036 2.15634036 0 0 Z " fill="#E7EDF5" transform="translate(177,163)"/>
<path d="M0 0 C0.33895656 1.72807318 0.67091525 3.45751974 1 5.1875 C1.185625 6.15042969 1.37125 7.11335938 1.5625 8.10546875 C1.97691408 10.84726192 2.30491012 13.24151627 2 16 C1.01 16.66 0.02 17.32 -1 18 C-1.66 12.39 -2.32 6.78 -3 1 C-1 0 -1 0 0 0 Z " fill="#D8BC44" transform="translate(78,114)"/>
<path d="M0 0 C2.49361571 1.20381448 4.68143083 2.45428722 7 4 C7 4.66 7 5.32 7 6 C5.68 5.67 4.36 5.34 3 5 C2.71125 5.598125 2.4225 6.19625 2.125 6.8125 C1 9 1 9 -1 12 C-1.99 11.67 -2.98 11.34 -4 11 C-3.01 9.6696875 -3.01 9.6696875 -2 8.3125 C-0.01139933 5.01888014 0.43735074 3.71748127 0 0 Z " fill="#E8EDF5" transform="translate(57,176)"/>
<path d="M0 0 C4.95 0 9.9 0 15 0 C14.67 0.99 14.34 1.98 14 3 C11.03 2.505 11.03 2.505 8 2 C8 3.32 8 4.64 8 6 C7.34 6 6.68 6 6 6 C5.67 5.34 5.34 4.68 5 4 C4.01 3.7834375 4.01 3.7834375 3 3.5625 C2.34 3.376875 1.68 3.19125 1 3 C0.67 2.01 0.34 1.02 0 0 Z " fill="#F9FAFC" transform="translate(185,82)"/>
<path d="M0 0 C0.33 0 0.66 0 1 0 C0.97061497 6.47939848 -0.19826322 10.09043313 -4.72265625 14.78515625 C-5.14417969 15.18605469 -5.56570312 15.58695313 -6 16 C-7.65 15.67 -9.3 15.34 -11 15 C-10.2575 14.4225 -9.515 13.845 -8.75 13.25 C-3.63288888 9.06327272 -1.5256029 6.61094588 0 0 Z " fill="#1D1D5D" transform="translate(127,111)"/>
<path d="M0 0 C0.99 0 1.98 0 3 0 C3 2.97 3 5.94 3 9 C4.32 9 5.64 9 7 9 C7 9.66 7 10.32 7 11 C4.69 11 2.38 11 0 11 C0 7.37 0 3.74 0 0 Z " fill="#E8EEF5" transform="translate(103,195)"/>
<path d="M0 0 C1.65 1.65 3.3 3.3 5 5 C5.99 4.67 6.98 4.34 8 4 C7.67 6.64 7.34 9.28 7 12 C4.07157569 9.17616228 1.31989611 6.35096105 -1 3 C-0.67 2.01 -0.34 1.02 0 0 Z " fill="#6D501C" transform="translate(89,90)"/>
<path d="M0 0 C-0.99 0.33 -1.98 0.66 -3 1 C-2.34 2.65 -1.68 4.3 -1 6 C-3.31 6 -5.62 6 -8 6 C-8.33 4.35 -8.66 2.7 -9 1 C-6.04335481 -0.4783226 -3.25770263 -0.06032783 0 0 Z " fill="#F8E155" transform="translate(94,129)"/>
<path d="M0 0 C0.66 0 1.32 0 2 0 C3.20272819 2.40545638 3.10071472 3.94996953 3.0625 6.625 C3.05347656 7.44226563 3.04445313 8.25953125 3.03515625 9.1015625 C3.02355469 9.72804687 3.01195313 10.35453125 3 11 C-0.375 10.6875 -0.375 10.6875 -4 10 C-4.66 9.01 -5.32 8.02 -6 7 C-1.25 7.875 -1.25 7.875 1 9 C0.67 6.03 0.34 3.06 0 0 Z " fill="#836125" transform="translate(115,157)"/>
<path d="M0 0 C0.66 0.66 1.32 1.32 2 2 C0.92027262 3.4194169 -0.16395863 4.8354083 -1.25 6.25 C-2.15492188 7.43335937 -2.15492188 7.43335937 -3.078125 8.640625 C-4.93182995 10.91631157 -6.88898954 12.96371558 -9 15 C-8.61731407 8.87702516 -4.1716037 4.1716037 0 0 Z " fill="#493315" transform="translate(137,87)"/>
<path d="M0 0 C5.03015614 1.12744879 9.59297245 2.2052996 14 5 C14.875 7.1875 14.875 7.1875 15 9 C13.989375 8.38125 12.97875 7.7625 11.9375 7.125 C9.3538892 5.62534811 7.02586272 4.64019345 4.125 3.9375 C3.09375 3.628125 2.0625 3.31875 1 3 C0.67 2.01 0.34 1.02 0 0 Z " fill="#593F1B" transform="translate(55,91)"/>
<path d="M0 0 C0.75410156 0.00451172 1.50820312 0.00902344 2.28515625 0.01367188 C4.14847127 0.02546501 6.01174555 0.04340058 7.875 0.0625 C7.875 0.3925 7.875 0.7225 7.875 1.0625 C6.17730469 1.10117188 6.17730469 1.10117188 4.4453125 1.140625 C2.96350257 1.19689626 1.48173323 1.25424382 0 1.3125 C-0.74636719 1.32667969 -1.49273437 1.34085937 -2.26171875 1.35546875 C-4.69638381 1.42236341 -4.69638381 1.42236341 -8.125 2.0625 C-9.63886537 3.88081156 -9.63886537 3.88081156 -10.125 6.0625 C-11.10081759 7.41363205 -12.09529741 8.75196944 -13.125 10.0625 C-13.785 9.7325 -14.445 9.4025 -15.125 9.0625 C-15.125 8.4025 -15.125 7.7425 -15.125 7.0625 C-14.135 6.4025 -13.145 5.7425 -12.125 5.0625 C-11.44231862 3.73729497 -10.7742959 2.40437818 -10.125 1.0625 C-6.93675432 -0.53162284 -3.49603338 -0.03924735 0 0 Z " fill="#D5BA4B" transform="translate(70.125,81.9375)"/>
<path d="M0 0 C0.66 0 1.32 0 2 0 C1.87431641 1.10408203 1.87431641 1.10408203 1.74609375 2.23046875 C1.59333984 3.69419922 1.59333984 3.69419922 1.4375 5.1875 C1.33308594 6.15042969 1.22867188 7.11335938 1.12109375 8.10546875 C1.00241249 10.94233377 1.32234361 13.25423671 2 16 C1.01 16 0.02 16 -1 16 C-2.55053541 11.34839376 -2.82489894 6.06224735 -1 1.5 C-0.67 1.005 -0.34 0.51 0 0 Z " fill="#2E2C60" transform="translate(98,104)"/>
<path d="M0 0 C6.20988129 0.44356295 10.60540561 1.91532502 16 5 C15.67 5.99 15.34 6.98 15 8 C13.24956851 7.20928784 11.49967222 6.41739082 9.75 5.625 C8.77546875 5.18414062 7.8009375 4.74328125 6.796875 4.2890625 C4.50688161 3.23361862 2.24633399 2.14456065 0 1 C0 0.67 0 0.34 0 0 Z " fill="#D9A734" transform="translate(132,43)"/>
<path d="M0 0 C3 1 3 1 4 3 C4.13415472 5.6723621 4.04318541 8.32250488 4 11 C-2.5 14.125 -2.5 14.125 -7 13 C-4.03 12.01 -1.06 11.02 2 10 C1.855625 8.72125 1.71125 7.4425 1.5625 6.125 C1.44068359 5.04605469 1.44068359 5.04605469 1.31640625 3.9453125 C1.08707039 1.92595684 1.08707039 1.92595684 0 0 Z " fill="#E3E1E0" transform="translate(167,86)"/>
<path d="M0 0 C5.445 1.485 5.445 1.485 11 3 C11 3.66 11 4.32 11 5 C5.25 5.125 5.25 5.125 3 4 C2.67 4.99 2.34 5.98 2 7 C1.34 7 0.68 7 0 7 C0 4.69 0 2.38 0 0 Z " fill="#3D2910" transform="translate(115,150)"/>
<path d="M0 0 C0.33 0 0.66 0 1 0 C1.1875 2.875 1.1875 2.875 1 6 C-2.22373677 8.14915785 -3.26703674 8.38286803 -7 8 C-7.66 7.34 -8.32 6.68 -9 6 C-8.67 5.01 -8.34 4.02 -8 3 C-7.21625 3.185625 -6.4325 3.37125 -5.625 3.5625 C-3.02910225 4.25962266 -3.02910225 4.25962266 -1 3 C-0.67 2.01 -0.34 1.02 0 0 Z " fill="#EAEFF6" transform="translate(34,145)"/>
<path d="M0 0 C0.66 0 1.32 0 2 0 C1.67 1.65 1.34 3.3 1 5 C1.99 4.67 2.98 4.34 4 4 C4 4.66 4 5.32 4 6 C1 8 1 8 -1.6875 7.625 C-2.450625 7.41875 -3.21375 7.2125 -4 7 C-3.67 5.68 -3.34 4.36 -3 3 C-2.34 3 -1.68 3 -1 3 C-0.67 2.01 -0.34 1.02 0 0 Z " fill="#1765B1" transform="translate(199,133)"/>
<path d="M0 0 C0.66 0 1.32 0 2 0 C1.40380045 4.86896303 0.43023178 9.32790951 -1 14 C-1.66 14 -2.32 14 -3 14 C-2.58846263 9.02906176 -2.20399168 4.55491614 0 0 Z " fill="#58411D" transform="translate(150,102)"/>
<path d="M0 0 C1 2 1 2 0.00390625 5.0390625 C-0.47175781 6.22242187 -0.94742188 7.40578125 -1.4375 8.625 C-1.91058594 9.81351563 -2.38367188 11.00203125 -2.87109375 12.2265625 C-3.24363281 13.14179687 -3.61617188 14.05703125 -4 15 C-4.99 14.67 -5.98 14.34 -7 14 C-5.68 10.37 -4.36 6.74 -3 3 C-2.34 3 -1.68 3 -1 3 C-0.67 2.01 -0.34 1.02 0 0 Z " fill="#CAA938" transform="translate(105,65)"/>
<path d="M0 0 C2.31 0.66 4.62 1.32 7 2 C6.34 3.32 5.68 4.64 5 6 C2.625 6.1875 2.625 6.1875 0 6 C-0.66 5.01 -1.32 4.02 -2 3 C-1.34 2.01 -0.68 1.02 0 0 Z " fill="#1765B1" transform="translate(45,53)"/>
<path d="M0 0 C3.3 0.99 6.6 1.98 10 3 C9.01 3.99 8.02 4.98 7 6 C3.51967799 5.73897585 1.94903702 4.96602468 -1 3 C-0.67 2.01 -0.34 1.02 0 0 Z " fill="#D3A333" transform="translate(74,208)"/>
<path d="M0 0 C2.95529457 0.36040178 3.75137927 1.02476855 5.5625 3.3125 C5.2325 4.3025 4.9025 5.2925 4.5625 6.3125 C3.5725 5.6525 2.5825 4.9925 1.5625 4.3125 C0.2425 4.3125 -1.0775 4.3125 -2.4375 4.3125 C-3.0975 5.3025 -3.7575 6.2925 -4.4375 7.3125 C-4.5625 4.9375 -4.5625 4.9375 -4.4375 2.3125 C-2.4375 0.3125 -2.4375 0.3125 0 0 Z " fill="#F0F4F9" transform="translate(188.4375,149.6875)"/>
<path d="M0 0 C4.455 2.97 4.455 2.97 9 6 C8.67 6.99 8.34 7.98 8 9 C5.03 7.02 2.06 5.04 -1 3 C-0.67 2.01 -0.34 1.02 0 0 Z " fill="#E5EBF4" transform="translate(180,159)"/>
<path d="M0 0 C2.00720923 0.28674418 4.0085944 0.61866701 6 1 C5.67 2.65 5.34 4.3 5 6 C3.125 5.75 3.125 5.75 1 5 C-0.25 2.9375 -0.25 2.9375 -1 1 C-0.67 0.67 -0.34 0.34 0 0 Z " fill="#1664B1" transform="translate(186,153)"/>
<path d="M0 0 C0.88492145 2.47778006 1.11637742 3.66056586 0.25 6.1875 C-1 8 -1 8 -4 9 C-4.6875 6.1875 -4.6875 6.1875 -5 3 C-3.41464922 0.73521317 -2.79754986 0 0 0 Z " fill="#2F4190" transform="translate(122,111)"/>
<path d="M0 0 C0.99 0 1.98 0 3 0 C0.97247706 7.01834862 0.97247706 7.01834862 -2 9 C-4.6875 9.1875 -4.6875 9.1875 -7 9 C-5.625 7.5 -5.625 7.5 -4 6 C-3.34 6 -2.68 6 -2 6 C-1.855625 5.38125 -1.71125 4.7625 -1.5625 4.125 C-1 2 -1 2 0 0 Z " fill="#FEF285" transform="translate(136,93)"/>
<path d="M0 0 C1.258125 0.12375 2.51625 0.2475 3.8125 0.375 C4.87404297 0.47941406 4.87404297 0.47941406 5.95703125 0.5859375 C8 1 8 1 11 3 C11 3.66 11 4.32 11 5 C11.66 5.33 12.32 5.66 13 6 C9.70342144 6 7.83635572 5.25666731 4.8125 4 C3.91144531 3.62875 3.01039062 3.2575 2.08203125 2.875 C1.39496094 2.58625 0.70789062 2.2975 0 2 C0 1.34 0 0.68 0 0 Z " fill="#F4E262" transform="translate(58,90)"/>
<path d="M0 0 C3 1 3 1 4.203125 3.14453125 C4.54859375 4.02496094 4.8940625 4.90539062 5.25 5.8125 C5.60578125 6.68519531 5.9615625 7.55789062 6.328125 8.45703125 C7.03604136 11.13641236 6.9337741 12.43212123 6 15 C6 14.01 6 13.02 6 12 C5.34 12 4.68 12 4 12 C3.3291288 10.3767313 2.66342971 8.75132422 2 7.125 C1.62875 6.22007813 1.2575 5.31515625 0.875 4.3828125 C0 2 0 2 0 0 Z " fill="#EDECEC" transform="translate(122,65)"/>
<path d="M0 0 C1.32 0 2.64 0 4 0 C4 0.99 4 1.98 4 3 C3.34 3 2.68 3 2 3 C2 4.32 2 5.64 2 7 C0.35 7 -1.3 7 -3 7 C-1.125 1.125 -1.125 1.125 0 0 Z " fill="#CBD8EA" transform="translate(95,194)"/>
<path d="M0 0 C0 0.33 0 0.66 0 1 C-1.30324219 1.16435547 -1.30324219 1.16435547 -2.6328125 1.33203125 C-11.22856045 2.45696426 -11.22856045 2.45696426 -19 6 C-19.33 5.01 -19.66 4.02 -20 3 C-14.00424316 -0.99717123 -6.96065698 -0.1114696 0 0 Z " fill="#A68120" transform="translate(158,83)"/>
<path d="M0 0 C0.99 0.33 1.98 0.66 3 1 C3 2.65 3 4.3 3 6 C1.35 6.33 -0.3 6.66 -2 7 C-2.125 4.625 -2.125 4.625 -2 2 C-1.34 1.34 -0.68 0.68 0 0 Z " fill="#1062B0" transform="translate(72,188)"/>
<path d="M0 0 C0.66 0.33 1.32 0.66 2 1 C0.76067171 4.43198603 -0.50301511 7.30325632 -3 10 C-3.99 10 -4.98 10 -6 10 C-4.34832443 6.4213696 -2.21713508 3.25179812 0 0 Z " fill="#E7EDF5" transform="translate(66,182)"/>
<path d="M0 0 C3.48331435 3.01887244 4.79157144 5.56909529 6 10 C5.01 10 4.02 10 3 10 C-0.22265625 4.82421875 -0.22265625 4.82421875 -1 3 C-0.67 2.01 -0.34 1.02 0 0 Z " fill="#EAEFF6" transform="translate(153,184)"/>
<path d="M0 0 C0.66 0.33 1.32 0.66 2 1 C2 1.66 2 2.32 2 3 C-5.28571429 6.42857143 -5.28571429 6.42857143 -10 6 C-9.01 5.67 -8.02 5.34 -7 5 C-7 4.34 -7 3.68 -7 3 C-4.69631264 1.93347808 -2.35981813 0.93578995 0 0 Z " fill="#866934" transform="translate(133,150)"/>
<path d="M0 0 C0.33 0 0.66 0 1 0 C1 1.65 1 3.3 1 5 C1.66 5 2.32 5 3 5 C3.33 6.98 3.66 8.96 4 11 C3.01 11.33 2.02 11.66 1 12 C-0.47075246 7.58774263 -1.36884358 4.51718381 0 0 Z " fill="#DBA72C" transform="translate(9,131)"/>
<path d="M0 0 C4.95 0 9.9 0 15 0 C15 0.66 15 1.32 15 2 C16.32 2.33 17.64 2.66 19 3 C19 3.66 19 4.32 19 5 C13.25 3.125 13.25 3.125 11 2 C9.12943209 1.7724985 7.25314042 1.59037189 5.375 1.4375 C4.37210937 1.35371094 3.36921875 1.26992187 2.3359375 1.18359375 C1.56507812 1.12300781 0.79421875 1.06242187 0 1 C0 0.67 0 0.34 0 0 Z " fill="#DFD8CA" transform="translate(67,81)"/>
<path d="M0 0 C1.32 0.66 2.64 1.32 4 2 C4 3.98 4 5.96 4 8 C3.34 7.34 2.68 6.68 2 6 C1.67 6.99 1.34 7.98 1 9 C0.01 9 -0.98 9 -2 9 C-1.34 6.03 -0.68 3.06 0 0 Z " fill="#D2DDEC" transform="translate(80,192)"/>
<path d="M0 0 C1.9375 0.3125 1.9375 0.3125 4 1 C5 4 5 4 4 7 C3.01 7 2.02 7 1 7 C-0.0625 4.625 -0.0625 4.625 -1 2 C-0.67 1.34 -0.34 0.68 0 0 Z " fill="#304291" transform="translate(103,112)"/>
<path d="M0 0 C2.9375 1.3125 2.9375 1.3125 6 3 C6.33 3.99 6.66 4.98 7 6 C5.02 6 3.04 6 1 6 C0.34 4.35 -0.32 2.7 -1 1 C-0.67 0.67 -0.34 0.34 0 0 Z " fill="#2E4192" transform="translate(114,103)"/>
<path d="M0 0 C0 1.32 0 2.64 0 4 C-1.98 4.33 -3.96 4.66 -6 5 C-6 3.68 -6 2.36 -6 1 C-4 0 -4 0 0 0 Z " fill="#1162B0" transform="translate(33,145)"/>
<path d="M0 0 C0.66 0 1.32 0 2 0 C0.88971278 3.84330191 0.02168791 6.35602308 -3 9 C-3.66 9.99 -4.32 10.98 -5 12 C-4.52583422 7.02125936 -3.0900669 3.93281242 0 0 Z " fill="#AC8D30" transform="translate(121,135)"/>
<path d="M0 0 C3.63 0 7.26 0 11 0 C10.34 1.32 9.68 2.64 9 4 C8.67 3.34 8.34 2.68 8 2 C5.69 2.33 3.38 2.66 1 3 C0.67 2.01 0.34 1.02 0 0 Z " fill="#FBE75E" transform="translate(107,140)"/>
<path d="M0 0 C0.33 0.99 0.66 1.98 1 3 C-1.52475462 4.26237731 -3.31200466 4.09856404 -6.125 4.0625 C-7.03507813 4.05347656 -7.94515625 4.04445313 -8.8828125 4.03515625 C-9.58148438 4.02355469 -10.28015625 4.01195313 -11 4 C-7.43904445 2.12498358 -3.8877114 1.04669153 0 0 Z M-13 4 C-11 5 -11 5 -11 5 Z M-15 5 C-13 6 -13 6 -13 6 Z " fill="#F6E97F" transform="translate(165,89)"/>
<path d="M0 0 C2.60444348 -0.05394705 5.20776998 -0.09364469 7.8125 -0.125 C8.55048828 -0.14175781 9.28847656 -0.15851563 10.04882812 -0.17578125 C13.91246426 -0.21074628 15.70903668 -0.19397555 19 2 C18.67 2.99 18.34 3.98 18 5 C17.31550781 4.51917969 16.63101563 4.03835937 15.92578125 3.54296875 C12.51263572 1.74297878 10.02307577 1.50621595 6.1875 1.3125 C5.02605469 1.24675781 3.86460937 1.18101563 2.66796875 1.11328125 C1.78753906 1.07589844 0.90710938 1.03851563 0 1 C0 0.67 0 0.34 0 0 Z " fill="#E7DEB9" transform="translate(148,81)"/>
<path d="M0 0 C0.99 0 1.98 0 3 0 C3 2.97 3 5.94 3 9 C2.01 9.33 1.02 9.66 0 10 C-0.33 9.67 -0.66 9.34 -1 9 C-0.91062197 7.47480724 -0.75462854 5.95318071 -0.5625 4.4375 C-0.46066406 3.61121094 -0.35882813 2.78492188 -0.25390625 1.93359375 C-0.17011719 1.29550781 -0.08632812 0.65742188 0 0 Z " fill="#BB9A32" transform="translate(108,155)"/>
<path d="M0 0 C1.80636673 1.80636673 2.82223562 3.24463713 4.0625 5.4375 C4.40410156 6.03433594 4.74570313 6.63117188 5.09765625 7.24609375 C6 9 6 9 7 12 C6.01 12 5.02 12 4 12 C-0.57142857 4.71428571 -0.57142857 4.71428571 0 0 Z " fill="#E4E1DD" transform="translate(79,139)"/>
<path d="M0 0 C2.475 0.99 2.475 0.99 5 2 C4.74476126 3.62752231 4.47025506 5.25203196 4.1875 6.875 C4.03667969 7.77992187 3.88585937 8.68484375 3.73046875 9.6171875 C3 12 3 12 0 14 C0.33 13.01 0.66 12.02 1 11 C1.15754704 9.04322445 1.15754704 9.04322445 1.125 7 C1.12757812 6.319375 1.13015625 5.63875 1.1328125 4.9375 C1.06631126 2.78125219 1.06631126 2.78125219 0 0 Z " fill="#262C74" transform="translate(123,106)"/>
<path d="M0 0 C1.8125 0.1875 1.8125 0.1875 4 1 C5.8125 3.375 5.8125 3.375 7 6 C6.67 6.99 6.34 7.98 6 9 C5.38125 8.195625 4.7625 7.39125 4.125 6.5625 C2.25835959 3.96125481 2.25835959 3.96125481 0 3 C0 2.01 0 1.02 0 0 Z " fill="#201F5D" transform="translate(120,100)"/>
<path d="M0 0 C3.63 0.66 7.26 1.32 11 2 C11 2.66 11 3.32 11 4 C7.7 4 4.4 4 1 4 C0.67 2.68 0.34 1.36 0 0 Z " fill="#442E16" transform="translate(91,151)"/>
<path d="M0 0 C0.33 0 0.66 0 1 0 C2.42857143 8.42857143 2.42857143 8.42857143 0 13 C-0.33 13 -0.66 13 -1 13 C-1.02686553 11.02090602 -1.04633375 9.04171029 -1.0625 7.0625 C-1.07410156 5.96035156 -1.08570313 4.85820313 -1.09765625 3.72265625 C-1 1 -1 1 0 0 Z " fill="#DBA21E" transform="translate(8,116)"/>
<path d="M0 0 C1.65 1.32 3.3 2.64 5 4 C4 5 4 5 0.4375 5.0625 C-0.696875 5.041875 -1.83125 5.02125 -3 5 C-3 4.01 -3 3.02 -3 2 C-2.01 1.34 -1.02 0.68 0 0 Z " fill="#3A4891" transform="translate(112,117)"/>
<path d="M0 0 C8.57142857 1.85714286 8.57142857 1.85714286 12 5 C11.67 5.66 11.34 6.32 11 7 C7.37 5.35 3.74 3.7 0 2 C0 1.34 0 0.68 0 0 Z " fill="#B5AFAE" transform="translate(57,94)"/>
<path d="M0 0 C3.4375 1.3125 3.4375 1.3125 7 3 C7.33 3.99 7.66 4.98 8 6 C4.30581799 6 2.22163822 4.71820705 -1 3 C-0.67 2.01 -0.34 1.02 0 0 Z " fill="#C0A237" transform="translate(97,136)"/>
<path d="M0 0 C0.66 0.33 1.32 0.66 2 1 C0.515 2.485 0.515 2.485 -1 4 C-0.67 4.66 -0.34 5.32 0 6 C-2.64 6.99 -5.28 7.98 -8 9 C-6.4169423 4.7257442 -3.49431596 2.73468206 0 0 Z " fill="#F4DF5F" transform="translate(130,130)"/>
<path d="M0 0 C2.18975773 3.28463659 2.99806563 6.20696275 4 10 C2.68 9.67 1.36 9.34 0 9 C-0.87890625 2.84765625 -0.87890625 2.84765625 -1 1 C-0.67 0.67 -0.34 0.34 0 0 Z " fill="#A8842A" transform="translate(79,130)"/>
<path d="M0 0 C0.66 0.33 1.32 0.66 2 1 C4.04055005 1.07065617 6.08334257 1.08421976 8.125 1.0625 C9.22070312 1.05347656 10.31640625 1.04445313 11.4453125 1.03515625 C12.28835937 1.02355469 13.13140625 1.01195313 14 1 C13.67 1.66 13.34 2.32 13 3 C8.04413531 4.26968434 3.57906464 4.51109996 -1 2 C-0.67 1.34 -0.34 0.68 0 0 Z " fill="#222A79" transform="translate(106,122)"/>
<path d="M0 0 C5.53846154 0.61538462 5.53846154 0.61538462 7.875 2.5625 C8.431875 3.2740625 8.431875 3.2740625 9 4 C8.67 4.99 8.34 5.98 8 7 C6.66382648 6.02471263 5.3311249 5.04466681 4 4.0625 C3.2575 3.51722656 2.515 2.97195312 1.75 2.41015625 C1.1725 1.94480469 0.595 1.47945313 0 1 C0 0.67 0 0.34 0 0 Z " fill="#997525" transform="translate(80,85)"/>
<path d="M0 0 C0.99 0.33 1.98 0.66 3 1 C2.75 2.875 2.75 2.875 2 5 C0.125 6.125 0.125 6.125 -2 7 C-2.99 7.66 -3.98 8.32 -5 9 C-4.1875 6.5625 -4.1875 6.5625 -3 4 C-2.01 3.67 -1.02 3.34 0 3 C0 2.01 0 1.02 0 0 Z " fill="#B39339" transform="translate(111,55)"/>
<path d="M0 0 C0.99 0 1.98 0 3 0 C3 3.63 3 7.26 3 11 C2.34 11 1.68 11 1 11 C0.67 7.37 0.34 3.74 0 0 Z " fill="#F8FAFC" transform="translate(117,195)"/>
<path d="M0 0 C0.66 0.33 1.32 0.66 2 1 C0.625 3.5 0.625 3.5 -1 6 C-1.66 6 -2.32 6 -3 6 C-3.66 7.65 -4.32 9.3 -5 11 C-5.33 10.34 -5.66 9.68 -6 9 C-5.0390625 7.08984375 -5.0390625 7.08984375 -3.625 4.9375 C-3.16351563 4.22464844 -2.70203125 3.51179688 -2.2265625 2.77734375 C-1 1 -1 1 0 0 Z " fill="#A29B9B" transform="translate(157,97)"/>
<path d="M0 0 C2.22825644 2.22825644 2.69239369 3.65761628 3.625 6.625 C4.01558594 7.85089844 4.01558594 7.85089844 4.4140625 9.1015625 C4.60742188 9.72804688 4.80078125 10.35453125 5 11 C4.01 11.66 3.02 12.32 2 13 C1.66127487 11.58461283 1.32925376 10.16762037 1 8.75 C0.814375 7.96109375 0.62875 7.1721875 0.4375 6.359375 C0 4 0 4 0 0 Z " fill="#B8B2B2" transform="translate(127,83)"/>
<path d="M0 0 C1.2065625 0.0309375 1.2065625 0.0309375 2.4375 0.0625 C2.4375 0.7225 2.4375 1.3825 2.4375 2.0625 C1.1175 2.0625 -0.2025 2.0625 -1.5625 2.0625 C-0.5725 3.3825 0.4175 4.7025 1.4375 6.0625 C-0.2125 6.0625 -1.8625 6.0625 -3.5625 6.0625 C-3.605221 4.39638095 -3.60313832 2.72867115 -3.5625 1.0625 C-2.5625 0.0625 -2.5625 0.0625 0 0 Z " fill="#EDF1F7" transform="translate(138.5625,190.9375)"/>
<path d="M0 0 C4.55384615 -0.36923077 4.55384615 -0.36923077 6.8125 1.5 C7.204375 1.995 7.59625 2.49 8 3 C7.67 3.99 7.34 4.98 7 6 C5.02 5.34 3.04 4.68 1 4 C1.33 3.01 1.66 2.02 2 1 C1.34 0.67 0.68 0.34 0 0 Z " fill="#BFCEE5" transform="translate(191,145)"/>
<path d="M0 0 C2.475 0.495 2.475 0.495 5 1 C5.625 2.8125 5.625 2.8125 6 5 C5.01 6.485 5.01 6.485 4 8 C3.34 8 2.68 8 2 8 C2 5.69 2 3.38 2 1 C1.34 0.67 0.68 0.34 0 0 Z " fill="#DEE5F1" transform="translate(198,130)"/>
<path d="M0 0 C2.475 0.99 2.475 0.99 5 2 C4.67 2.99 4.34 3.98 4 5 C4.66 5.33 5.32 5.66 6 6 C2.48283697 6 1.62878252 5.17554415 -1 3 C-0.67 2.01 -0.34 1.02 0 0 Z " fill="#D1A02D" transform="translate(173,26)"/>
<path d="M0 0 C1.125 1.6875 1.125 1.6875 2 4 C1.125 6.75 1.125 6.75 0 9 C-2 7 -2 7 -2.125 4.375 C-2.08375 3.59125 -2.0425 2.8075 -2 2 C-1.34 2 -0.68 2 0 2 C0 1.34 0 0.68 0 0 Z " fill="#CFA237" transform="translate(13,140)"/>
<path d="M0 0 C0.99 0 1.98 0 3 0 C3.33 0.99 3.66 1.98 4 3 C3.67 3.66 3.34 4.32 3 5 C0.03 4.505 0.03 4.505 -3 4 C-1.6875 2 -1.6875 2 0 0 Z " fill="#314292" transform="translate(107,104)"/>
<path d="M0 0 C0 0.66 0 1.32 0 2 C-0.9590625 2.433125 -0.9590625 2.433125 -1.9375 2.875 C-4.15206079 3.82823451 -4.15206079 3.82823451 -5 6 C-5.66 6 -6.32 6 -7 6 C-6.625 3.5625 -6.625 3.5625 -6 1 C-4 0 -4 0 0 0 Z " fill="#ECF0F7" transform="translate(75,186)"/>
<path d="M0 0 C1.32 0 2.64 0 4 0 C4 2.31 4 4.62 4 7 C3.01 7 2.02 7 1 7 C0.67 4.69 0.34 2.38 0 0 Z " fill="#E7ECF4" transform="translate(20,135)"/>
<path d="M0 0 C1.8125 0.1875 1.8125 0.1875 4 1 C5.75 3.5625 5.75 3.5625 7 6 C4.625 5.8125 4.625 5.8125 2 5 C0.6875 2.4375 0.6875 2.4375 0 0 Z " fill="#FBE860" transform="translate(91,130)"/>
<path d="M0 0 C-3 2 -3 2 -5 2 C-5.66 3.32 -6.32 4.64 -7 6 C-7 4.02 -7 2.04 -7 0 C-4.3333581 -1.33332095 -2.83319697 -0.67102033 0 0 Z " fill="#C7A834" transform="translate(90,128)"/>
<path d="M0 0 C3.43595166 1.52708963 6.11912454 3.59927045 9 6 C8.67 7.32 8.34 8.64 8 10 C6.66370254 8.52351062 5.33103329 7.0437367 4 5.5625 C3.2575 4.73878906 2.515 3.91507812 1.75 3.06640625 C0 1 0 1 0 0 Z " fill="#B8B2B2" transform="translate(86,86)"/>
<path d="M0 0 C2.375 0.25 2.375 0.25 5 1 C6.3125 3.0625 6.3125 3.0625 7 5 C6.01 5.33 5.02 5.66 4 6 C2.68 4.02 1.36 2.04 0 0 Z " fill="#997526" transform="translate(162,85)"/>
<path d="M0 0 C2.29013653 3.4352048 2.17842973 4.985331 2 9 C0.68 9 -0.64 9 -2 9 C-1.34 6.03 -0.68 3.06 0 0 Z " fill="#CA9C31" transform="translate(211,140)"/>
<path d="M0 0 C0.99 0.33 1.98 0.66 3 1 C2.21625 1.5775 1.4325 2.155 0.625 2.75 C-1.80047244 4.82897637 -2.85694417 6.09040333 -4 9 C-4.66 9 -5.32 9 -6 9 C-5.52797514 4.75177626 -3.03344482 2.80010291 0 0 Z " fill="#725319" transform="translate(123,138)"/>
<path d="M0 0 C0.99 0.33 1.98 0.66 3 1 C3 1.66 3 2.32 3 3 C3.99 3.33 4.98 3.66 6 4 C5.34 4.66 4.68 5.32 4 6 C1.375 5.625 1.375 5.625 -1 5 C-0.34 4.67 0.32 4.34 1 4 C0.67 2.68 0.34 1.36 0 0 Z " fill="#2167B1" transform="translate(27,136)"/>
<path d="M0 0 C4.75 0.875 4.75 0.875 7 2 C7.33 1.34 7.66 0.68 8 0 C8 1.32 8 2.64 8 4 C5.125 3.6875 5.125 3.6875 2 3 C1.34 2.01 0.68 1.02 0 0 Z " fill="#3D270F" transform="translate(109,164)"/>
<path d="M0 0 C2.375 -0.125 2.375 -0.125 5 0 C7 2 7 2 7 5 C6.34 5 5.68 5 5 5 C4.67 4.34 4.34 3.68 4 3 C1.47266765 2.34444881 1.47266765 2.34444881 -1 2 C-0.67 1.34 -0.34 0.68 0 0 Z " fill="#EBF0F6" transform="translate(42,164)"/>
<path d="M0 0 C1.485 0.99 1.485 0.99 3 2 C3.6875 5.625 3.6875 5.625 4 9 C3.01 8.34 2.02 7.68 1 7 C0.3125 3.375 0.3125 3.375 0 0 Z " fill="#A78124" transform="translate(73,107)"/>
<path d="M0 0 C0.99 0.33 1.98 0.66 3 1 C0.36 2.98 -2.28 4.96 -5 7 C-4 3 -4 3 -2.125 1.1875 C-1.42375 0.795625 -0.7225 0.40375 0 0 Z " fill="#E2E0DF" transform="translate(138,84)"/>
<path d="M0 0 C2.64 0.33 5.28 0.66 8 1 C7.67 1.66 7.34 2.32 7 3 C4.67843403 3.40729228 2.3431213 3.74438677 0 4 C0.66 3.34 1.32 2.68 2 2 C1.34 1.34 0.68 0.68 0 0 Z " fill="#D2A53F" transform="translate(132,8)"/>
<path d="M0 0 C0.598125 0.226875 1.19625 0.45375 1.8125 0.6875 C0.8225 1.3475 -0.1675 2.0075 -1.1875 2.6875 C-1.8475 3.3475 -2.5075 4.0075 -3.1875 4.6875 C-4.1875 5.6875 -5.1875 6.6875 -6.1875 7.6875 C-5.82037028 4.97074005 -5.46005401 3.07686287 -3.875 0.8125 C-2.1875 -0.3125 -2.1875 -0.3125 0 0 Z " fill="#D2DDEC" transform="translate(43.1875,163.3125)"/>
<path d="M0 0 C0.66 0.66 1.32 1.32 2 2 C0.37660195 3.70884005 -1.29319053 5.37446717 -3 7 C-3.66 7 -4.32 7 -5 7 C-3.70700306 4.11562221 -2.34058637 2.12780579 0 0 Z " fill="#6A4916" transform="translate(137,87)"/>
<path d="M0 0 C2.50298434 2.93828597 3.46930939 5.17902761 4 9 C3.01 8.67 2.02 8.34 1 8 C0.67 5.36 0.34 2.72 0 0 Z " fill="#EFDB57" transform="translate(119,70)"/>
<path d="M0 0 C1.5 1 1.5 1 3 3 C3.27345479 5.71846235 3.13491285 8.25677199 3 11 C0.43383368 7.15075052 0.44902324 4.5650696 0 0 Z " fill="#FCEB69" transform="translate(116,64)"/>
<path d="M0 0 C1.32 0.33 2.64 0.66 4 1 C2.35 2.65 0.7 4.3 -1 6 C-1.33 5.01 -1.66 4.02 -2 3 C-1.34 2.01 -0.68 1.02 0 0 Z " fill="#CE9C26" transform="translate(49,27)"/>
<path d="M0 0 C0.763125 0.20625 1.52625 0.4125 2.3125 0.625 C1.3225 2.11 1.3225 2.11 0.3125 3.625 C-1.6675 2.965 -3.6475 2.305 -5.6875 1.625 C-2.6875 -0.375 -2.6875 -0.375 0 0 Z " fill="#DAA31E" transform="translate(141.6875,10.375)"/>
<path d="M0 0 C0.33 0 0.66 0 1 0 C1 3.3 1 6.6 1 10 C0.01 10 -0.98 10 -2 10 C-1.855625 9.46375 -1.71125 8.9275 -1.5625 8.375 C-0.90546252 5.60084173 -0.44780052 2.81474612 0 0 Z " fill="#0053AA" transform="translate(102,195)"/>
<path d="M0 0 C0.66 0 1.32 0 2 0 C2.33 2.64 2.66 5.28 3 8 C1.5 6.8125 1.5 6.8125 0 5 C-0.1875 2.3125 -0.1875 2.3125 0 0 Z " fill="#ECF0F6" transform="translate(130,193)"/>
<path d="M0 0 C0.33 1.32 0.66 2.64 1 4 C-0.98 4.99 -0.98 4.99 -3 6 C-2.625 3.5625 -2.625 3.5625 -2 1 C-1.34 0.67 -0.68 0.34 0 0 Z " fill="#B0C7E2" transform="translate(52,171)"/>
<path d="M0 0 C0.66 0.33 1.32 0.66 2 1 C2 1.66 2 2.32 2 3 C0.02 3.99 -1.96 4.98 -4 6 C-2.25 1.125 -2.25 1.125 0 0 Z " fill="#DEE6F1" transform="translate(41,157)"/>
<path d="M0 0 C0.66 0 1.32 0 2 0 C2 1.98 2 3.96 2 6 C1.34 6 0.68 6 0 6 C0 5.34 0 4.68 0 4 C-0.66 4 -1.32 4 -2 4 C-1.34 2.68 -0.68 1.36 0 0 Z " fill="#432C10" transform="translate(109,149)"/>
<path d="M0 0 C0.99 0.33 1.98 0.66 3 1 C1.68 1.99 0.36 2.98 -1 4 C-1.66 3.34 -2.32 2.68 -3 2 C-2.01 1.34 -1.02 0.68 0 0 Z " fill="#F1DF61" transform="translate(153,95)"/>
<path d="M0 0 C0 0.99 0 1.98 0 3 C-3 5 -3 5 -5.1875 4.625 C-5.785625 4.41875 -6.38375 4.2125 -7 4 C-4.69 2.68 -2.38 1.36 0 0 Z " fill="#412A10" transform="translate(168,90)"/>
</svg>
